<svg xmlns="http://www.w3.org/2000/svg" width="495" height="499"><path d="M246.952 3.58C111.962 3.58 2.545 113.911 2.545 250.016c0 136.105 109.418 246.437 244.407 246.437s244.437-110.332 244.437-246.437c0-136.105-109.448-246.438-244.437-246.438zm-35.813 59.718c10.888-.306 22.201 3.537 32.75 13.313 51.86 50.338 104.86 104.799 141.438 142.718 15.026 15.578 11.997 47.818 2.062 58.375-20.7 21.998-107.107 106.8-146.437 147.438-22.14 22.876-54.928 6.386-64.5-2.906-11.255-10.926-22.533-46.247 5.656-71.125 33.685-29.729 91.552-83.512 108.156-99.594-47.32-47.764-77.918-74.346-113.687-108.469-16.744-17.087-16.842-49.96.969-65.5 9.462-8.256 21.254-13.903 33.593-14.25z" fill="currentColor"/></svg>
