<svg xmlns="http://www.w3.org/2000/svg" width="600" height="1000"><path d="M100 0C44.772 0 0 44.772 0 100v800c0 55.228 44.772 100 100 100h200c165.685 0 300-134.315 300-300 0-76.84-28.898-146.923-76.406-200C571.102 446.923 600 376.84 600 300 600 134.315 465.685 0 300 0H100zm200 200c55.228 0 100 44.772 100 100s-44.772 100-100 100-100-44.772-100-100 44.772-100 100-100zm0 400c55.228 0 100 44.772 100 100s-44.772 100-100 100-100-44.772-100-100 44.772-100 100-100z" fill="#00f" fill-rule="evenodd" stroke="#000"/><path d="M300 0C134.315 0 0 134.315 0 300s134.315 300 300 300c55.228 0 100 44.772 100 100s-44.772 100-100 100c-54.366 0-98.6-43.37-99.969-97.406-.021-.858-.031-1.731-.031-2.594 0-55.228-44.772-100-100-100S0 644.772 0 700c0 .866.024 1.73.031 2.594C1.426 867.084 135.181 1000 300 1000c165.685 0 300-134.315 300-300S465.685 400 300 400c-9.492 0-18.675-1.31-27.375-3.781-.79-.225-1.592-.476-2.375-.719C229.543 382.839 200 344.873 200 300c0-.863.01-1.736.031-2.594 1.13-44.6 31.465-81.944 72.594-93.625.79-.224 1.576-.42 2.375-.625A100.251 100.251 0 01300 200c55.228 0 100 44.772 100 100s44.772 100 100 100 100-44.772 100-100c0-.866-.024-1.73-.031-2.594C598.574 132.916 464.819 0 300 0z" fill="red"/><path d="M300 0c-.863 0-1.736.01-2.594.031C132.916 1.426 0 135.181 0 300s132.916 298.574 297.406 299.969c.858.021 1.731.031 2.594.031 55.228 0 100-44.772 100-100s-44.772-100-100-100-100-44.772-100-100 44.772-100 100-100 100-44.772 100-100S355.228 0 300 0z" fill="#0f0"/></svg>