<svg xmlns="http://www.w3.org/2000/svg" width="491.813" height="542.438"><path d="M451.902 590.728v-70.25l64.25-42" style="fill:none;stroke:#fff;stroke-width:1.5;stroke-opacity:.29045644" transform="translate(-27.84 -49.04)"/><path d="M465.24 534.434v2.157l1.969 1.375 3.313 1.937.218 1.563-1.969.593-3.125.594v1.344l1.157 1.187.219 3.907 4.28 1.375 1.563.375 1.375 2.156-.969 1.375-1.562.562-1.187 2.157-1.157 1.375.563 3.5 2.937-.188.781.594 2.75-1.375.782.781-1.375 2.938 1.375 1.375-2.344 1.75-1.562 3.5 4.28 1 6.063.562-2.531 2.938s-1.19-.46-1.719-.22c-.015.009-.048.023-.062.032l-.031.031-.032.032-.031.03c-.007.01-.025.022-.031.032-.003.005.002.026 0 .031-.005.011-.028.051-.031.063-.002.006.001.025 0 .031-.003.013-.03.05-.032.063v.062c0 .977-1.344 3.344-1.344 3.344l1.938 2.125 3.531 2.156 6.625 1.75 1.938.781 1.781.782-1.187 2.156 3.125-.188.593 1.375h3.125l.781-3.718-1.968-.407 2.75-2.906-.969-1 .188-1.75 3.53-1.937.188-2.157-2.344-.187-1.562 1.344v-1.938l3.125-.187.969-2.344.781-6.844-.594-2.937-.062-2.813-3.406 2.25-4.063.156-.344-2.812.531-.719-1.25-.875-.343-4.781-.531-.875h-2.125l-1.063-.875v-3.375l-1.406-.875-1.063-.531-2.125-2.657.156-1.593h-2.625l-.906-2.657h-3.719l-1.937-2.656.531-.875-1.219-.719-2.843.532-1.063-.688h-3.875l-.375-1.062-2.187-.407z" class="land departement2a" style="fill:#55d400;stroke:#fff;stroke-opacity:.29045644" transform="translate(-27.84 -49.04)"/><path d="m497.865 495.372-2.937 1.969.406 1.937 1.563 1.969-1.75 1.344.78 1.562-1.187 1.375v1.75l1.969 1.781v2.72l-1.187 2.53-1.344.594-1.563-2.156-2.75.219-.594-.407h-2.343l-2.125 1.97-.813 3.312-5.062.968-3.906 3.313-.782 2.156-1.937-.187-1-1.188-.563 3.344-1.375.562-.406 3.125.594 1.375-2.156 1.563-.594 1.562 2.187.407.375 1.062h3.875l1.063.688 2.844-.532 1.218.72-.531.874 1.938 2.656h3.718l.906 2.657h2.625l-.156 1.593 2.125 2.657 1.063.53 1.406.876v3.375l1.063.875h2.125l.53.875.344 4.781 1.25.875-.53.719.343 2.812 4.063-.156 3.406-2.25-.125-5.781 4.687-6.625v-10.938l-1.937-3.718-.594-11.72-1.375-2.155-2.531-1.938-.406-7.25 1.187-3.312-1.562-5.282-.97-4.28-.812-1.188z" class="land departement2b" style="fill:#55d400;stroke:#fff;stroke-opacity:.29045644" transform="translate(-27.84 -49.04)"/><path d="m399.62 455.385-5.468 3.125-1.406 10.5-5.782-.813-1.656 4.406 1.375 1.938-6.344 3.875-1.75 4.062 6.188.281 8.219.594 1.562 1.563h-2.937l-1.938 3.312 8.375 1.75 6.656-1.156-3.531-3.344 2.344-1.937 3.719 1.562 1.75 3.719 11.156.188 2.906-1.188.594 1.781-3.125 2.719 4.312.188-.781 1.968-1.187 1.375h9.562l4.688 1.563.468.625.188-3.875 1.406-1.594 1.781-1.062-.187-1.063-1.406-1.406h-1.407l-.906-1.063 1.594-1.437v-.531l-1.75-.875v-1.407l3.875.188.906-.719-3.375-3.187.188-3.72-2.125-1.75 1.75-3.53 4.25-2.844-3.188-2.125-2.281 1.781-5.313 1.219-4.25-.531-7.593-3.157-4.594.156-3.875-1.75-1.438-1.968-3-3.344-7.062-3z" class="land departement13" style="fill:#55d400;stroke:#fff;stroke-opacity:.29045644" transform="translate(-27.84 -49.04)"/><path d="m406.902 426.822-2.75.219-2.125 3.312.562 3.5 3.313.406-.563 1.563-2.562.188-2.906 2.937-.782-.969.563-3.906-1.156-1.375-5.282.781-1.031 2.094.563.313 3.312 5.5v4.437l5.813 5.781v2.5l-2.25 1.281.156.063 7.062 3 3 3.344 1.438 1.969 3.875 1.75 4.594-.157 7.593 3.156 4.25.532 5.313-1.219 2.187-1.719.282-1.469-4.063-4.593h-4.437v-1.594l1.593-1.781v-1.938l-3.531-1.75-.344-2.844 1.938-.875v-2.468l-2.125-.375-.156-2.656-.032-.188-1.781-.125-2.937-2.156-.782-2.531-5.468-.407-4.094-.375-.406-2.344 1.375-2.937-2.532 2.156-3.906-.406-.781-1.375 2.719-3.687z" class="land departement84" style="fill:#55d400;stroke:#fff;stroke-opacity:.29045644" transform="translate(-27.84 -49.04)"/><path d="m477.683 458.666-2.969.125-1.406 1.437-5.312-.187-4.594 3.344-3.156-2.125-4.97 1.593-.874 1.781-3.531 2.657-6.375-4.25-5.157 1.687-.25 1.375.094-.062 3.188 2.125-4.25 2.844-1.75 3.53 2.125 1.75-.188 3.72 3.375 3.187-.906.719-3.875-.188v1.406l1.75.875v.532l-1.594 1.437.906 1.063h1.407l1.406 1.406.187 1.063-1.781 1.062-1.406 1.594-.188 3.875.532.719 3.5 1.562.968 3.906 2.157.406 1.968-1.375 3.5-2.156 6.063.594-.188 1.563-1.968.968 4.687.219-1.156-1.187-.406-2.532 2.53-1.75 2.938.969 1.188.375.969 1.188 1.375-.97.375-2.562 1.562-1.344h4.094l1.187-1.78 2.719.78 3.125-1.343v-5.094l-4.094.188 3.125-1.938 1.563-2.156.406-3.125 5.656-.781 3.157-3.532-2.188-2.25v-1.25l-1.062-1.062 1.406-1.219-.344-1.969-2.312-.875h-1.22l-2.124-2.125-.375-3.719-2.281-1.062-2.313-.156-.875-2.125z" class="land departement83" style="fill:#55d400;stroke:#fff;stroke-opacity:.29045644" transform="translate(-27.84 -49.04)"/><path d="m483.746 409.822-2.125 3.188-3 1.78-1.063 2.126-2.656.156v1.938l-.719 1.062-1.062 2.656-6.344-.156-3-1.594-1.969 1.406-3.687-.187-.907 1.25h.907l.53 3.344-.905.375-3.344-2.125v-1.25l-1.938-1.594h-1.062v1.781l-1.594.344-3.375 1.938-2.125 3.562-.531 1.75 1.25.344.187 2.844h-1.25l-1.937-1.782-1.063.188.532 1.594 3 3.343-1.938.719-1.406-.875h-3.563l-3 2.813-.031-.032-.125 1.156-1.156-1.375-1.563-1.375-1 2.938-1.75 1.563-.75-.063.032.188.156 2.656 2.125.375v2.469l-1.938.875.344 2.843 3.531 1.75v1.938l-1.593 1.781v1.594h4.437l4.063 4.594-.032.093 5.157-1.687 6.375 4.25 3.53-2.656.876-1.782 4.969-1.594 3.156 2.125 4.594-3.343 5.312.187 1.406-1.437 2.969-.125.063-.031-.72-1.782.876-1.062-.344-1.406h2.813l.718-.875 2.657-1.438 2.125 1.438 1.406-.907-3.344-3-3.562-3.344-1.22-.375-.187-2.656-2.125-3.156.719-4.594 1.063-2.5 1.937-1.594.188-2.468 2.656-1.406.406-.157v-3.781l2.75-.375-1.562-1.375-1.97-.594-.968-2.531.781-1.75 3.5-3.719-.562-2.75.5-.531z" class="land departement04" style="fill:#55d400;stroke:#fff;stroke-opacity:.29045644" transform="translate(-27.84 -49.04)"/><path d="m483.808 427.353-.406.156-2.656 1.407-.188 2.469-1.937 1.593-1.063 2.5-.719 4.594 2.125 3.156.188 2.656 1.219.375 3.562 3.344 3.344 3-1.406.906-2.125-1.437-2.657 1.438-.718.875h-2.813l.344 1.406-.875 1.062.719 1.781-2.313 1.407.875 2.125 2.313.156 2.28 1.063.376 3.718 2.125 2.125h1.219l2.312.875.344 1.969-1.406 1.219 1.062 1.062v1.25l2.188 2.25.156-.187.187-4.469 3.907.781 1.375-1.781 1.968.406.188-6.062 4.5-.375 3.906-3.531h3.5l.188-2.157 3.53-2.125-1.968-4.5 2.938-2.531-.594-2.937 4.312-1.375 1.157-4.282-.563-2.937-1-1.75-.781-2.563-2.906.219-9.188 3.313h-2.937l-5.063-4.094-5.094-1.375h-2.937v-3.531l-4.094-2.532z" class="land departement06" style="fill:#55d400;stroke:#fff;stroke-opacity:.29045644" transform="translate(-27.84 -49.04)"/><path d="m467.246 384.635-1.75.78-.407 2.938-3.5.406-.593-2.75-1.157-1.156-3.531.375-1.375 1.188-.781 4.094.594.968 4.093.406.782 2.532 1.562.781v4.281l-3.719-.187-1.562 1.75-4.469-.781-2.531 2.156-1.781-.781-2.532 1.968.969 1.75-1.562 1.563h-4.875v2.344l1.562.78-.594 1.376-3.312 1.344-4.094.406-1.187 3.719-.188 2.343 2.156 1.75-2.156 2.531-2.719-1.375-3.125-.187-.406 1.75 1.969 1.375-2.375 1.563.812 3.312 6.625 1.781 1.188 2.531 1.937.375-.656 6.094.031.031 3-2.812h3.563l1.406.875 1.938-.719-3-3.344-.532-1.593 1.063-.188 1.937 1.781h1.25l-.187-2.843-1.25-.344.531-1.75 2.125-3.562 3.375-1.938 1.594-.344v-1.781h1.062l1.938 1.594v1.25l3.344 2.125.906-.375-.531-3.344h-.907l.907-1.25 3.687.188 1.969-1.407 3 1.594 6.344.156 1.062-2.656.719-1.062v-1.938l2.656-.156 1.063-2.125 3-1.781 2.125-3.188 2.53.125 1.845-2 2.125.188v-1.75l-2.72-1.375-.593-5.657-2.156-.781-2.719.406-5.094-2.562-.781-5.844-2.906-.969-1-1.969-1.281-2.812z" class="land departement05" style="fill:#55d400;stroke:#fff;stroke-opacity:.29045644" transform="translate(-27.84 -49.04)"/><path d="m340.683 397.728-5.469 1.969-1.562 3.5-3.5-2.344-2.75 8.594-2.813 6.469 4.094 5.031-.281 3.875 2.75 1.938v4.687l.844 6.625 3.312 1.406-.281 2.188 4.687-.813 1.657.813-1.032.906 6.032 4.031 5.156-1.062.875-1.25-.719-1.75 2.125-.531 3 2.812 5.125.531 2.313-3.531v-3l1.406-1.594-1.25-.344v-4.062l-2.813-3 2.313-.375 1.219-1.062.968-1.875-.968-.594.562-4.125-3.312-3.594-1.375-7.187-4.97-6.344-3.624.875-.781-2.719h-1.97l-.374 2.344-5.063 1.562z" class="land departement48" style="fill:#55d400;stroke:#fff;stroke-opacity:.29045644" transform="translate(-27.84 -49.04)"/><path d="m321.527 293.447-2.719 3.5-1.562.188-1.75 1.78-1.97-2.156-5.25 5.282v3.125l.97.781.187 1.563-2.719 2.125-2.562-.782-4.875 1-2.531 2.906-.938 2 .156-.03 2.344 3.312v2.344l1.344 1.75 1.375-1.75 1.562 2.75 2.157.78 2.156 5.063.094 1.469 2.968 2.313 1.594-.72 1.25-3 1.219-.343v-1.594l2.125-.187.187 1.062 2.657-3h3l.53 1.063-1.405 1.937 2.093 2.313.375 1.406 4.938 2.844 6 .875 1.781-.188 2.656.531 2.282-1.406 1.78.875.345 2.469 2.312.531 3-.156.875 2.125 2.75 1.094.094-.969 4.687-.219-.375-11.125-1.375-2.719.563-2.156 3.25-.562.094-.219 4.093-3.125.188-7.625-1.375-1.937h-3.125l-1.156-1.563h-3.313l-.969-1.187v-2.938l-3.937-7.406-1.938-1.375-3.718 5.094-1.563.375-.594-2.532-1.75-.781-.781 1.563h-2.906l-.406-1.75-1.97 1.156-2.124 1.187-2.344-2.562-3.344-1.563-.187-2.531z" class="land departement03" style="fill:#55d400;stroke:#fff;stroke-opacity:.29045644" transform="translate(-27.84 -49.04)"/><path d="m366.09 426.51-.97 1.875-1.218 1.062-2.313.375 2.813 3v4.063l1.25.343-1.406 1.594v3l-2.313 3.531-5.125-.531-3-2.812-2.125.53.719 1.75-.875 1.25-5.156 1.063-6.032-4.031-1.156 1.031v2.781l-2.219.532.563 2.219 2.75.562h3.031l.844 3.844-3.594 1.656v1.75l2.813.969v1.594l1.25.718 1.062-.906h1.406l.719 1.594h2.125l1.063-3.719h1.75l2.656-3.344 3.187.344.532 4.594 1.218 1.437 1.969-1.062 3.344 1.75 1.25 2.125 5.812 3.531 2.125 4.969v2.625l-3.718 2.125-2.407 2.156 3 .219v3.906l4.469-.219 2.406.125 1.75-4.062 6.344-3.875-1.375-1.938 1.656-4.406 5.782.813 1.406-10.5 7.719-4.407v-2.5l-5.813-5.781v-4.437l-3.312-5.5-6.907-3.875-.531 3.03-2.781.282-.813-3.031-2.781.531-.531 3.875-2.219-.812-4.687-3.063-2.22 1.125v-5.531z" class="land departement30" style="fill:#55d400;stroke:#fff;stroke-opacity:.29045644" transform="translate(-27.84 -49.04)"/><path d="m294.152 483.947-.281 3.594-3.594-1.125h-3.875l.281-1.375-1.937.281-4.125 1.375-1.375-2.5-2.782 2.5.844 1.938-3.062 1.375-.532 3.03-2.5 1.126 2.219 2.469-.562 1.656 9.687 4.687.813 6.656v3.594l.562 4.688h-4.969l-1.375 1.937 6.344 5.25 3.594-1.937 4.406 5.25-.656.062.844.5 7.937-3.875-1.937-2.843-.157-3.344h18.532l-.344-2.5 4.25-2.282 4.937 3.875 2.563 1.188-.156-5.594.218-6.437-2.343.187-1.97-2.906 1.563-2.562 3.313 3.125 2.937-2.344 1.969-1.938.25-2.062-2.5-.094-.875-2.812-2.469-.188-2.312-3.375-1.781.188-2.094-1.25-.375-3-1.063.53.532 2.126h-2.47l-.187 3.531-3.687 1.25-1.781-3.719-2.47 1.594-2.124-1.594-1.063-2.469 1.782-2.125-.844-2.28-.219.062h-5.812l-6.063-1.094z" class="land departement11" style="fill:#55d400;stroke:#fff;stroke-opacity:.29045644" transform="translate(-27.84 -49.04)"/><path d="m355.402 453.853-2.656 3.344h-1.75l-1.063 3.719h-2.125l-.719-1.594h-1.406l-1.062.906-1.25-.719v-1.593l-2.813-.969v1.031l-3.312.531-1.657 1.407.532 3.312h-3.032l-3.031-1.656h-1.656v1.938l.281 5.78h-4.969l-1.125 2.22-7.187 2.468-2.75-1.906-1.656 2.469-.813 2.75 3.031 2.781-1.125 3.594-4.187 1.312.844 2.281-1.782 2.125 1.063 2.47 2.125 1.593 2.469-1.594 1.78 3.719 3.688-1.25.188-3.531h2.469l-.532-2.125 1.063-.531.375 3 2.094 1.25 1.78-.188 2.313 3.375 2.469.188.875 2.812 2.5.094.125-1.063 7.031-2.156.782-1.75 5.468-.187 1.75-2.157 10.563-8.406 6.625-4.687 2.687.187 2.407-2.156 3.718-2.125v-2.625l-2.125-4.969-5.812-3.531-1.25-2.125-3.344-1.75-1.969 1.062-1.218-1.437-.532-4.594z" class="land departement34" style="fill:#55d400;stroke:#fff;stroke-opacity:.29045644" transform="translate(-27.84 -49.04)"/><path d="m320.402 514.135-4.25 2.28.344 2.5h-18.532l.157 3.345 1.937 2.843-7.937 3.875-.844-.5-6.531.469-.813 1.656-3.312.844-2.22 1.938-6.062 1.406.344 2.062 2.938 2.75 5.843 1.563.188 3.5 3.125 2.75 2.344-.407 3.343-4.093 4.094-.782 6.438 2.157 5.468 4.687 1.563-1.968h1.375l1.375.968 1.156-.562.188-2.75 5.875-1.375 1.937-2.532 2.938-.968h4.093l2.563 2.718 3.125.22v-3.126l-1.563-2.156-2.75-1.187-.437-17.063-2.563-1.187z" class="land departement66" style="fill:#55d400;stroke:#fff;stroke-opacity:.29045644" transform="translate(-27.84 -49.04)"/><path d="m305.746 369.197-.594 2.156.969 2.344-1.188 1.375h-1.937l-1.97-2.156-1.75-.969-.187 5.469-3.531 2.156-2.531 3.5.594 3.531-.782 1.563-1 3.125h-1.562l-1.563 1.937 1.188 1.188.781 1.937-2.531 1.781 1.031 6.532 3.313 2.469-2.5 5.812 2.5 1.094-1.094 3.312 2.187.281 1.657-2.75h2.78l.532.813h6.094l1.094-2.469 1.375-.562.562-4.406h1.375v-4.688l5.531-4.719.563.844.531 3.594 3.875-.563.844 5.531h1.906l.563 5.532 1.718 2.125 2.813-6.469 2.75-8.594 3.5 2.344 1.562-3.5 5-1.812v-1.657l-1.062-1.594-2.125-1.25 1.062-1.593-.906-.875 1.063-.344 1.25-1.062-2.125-.188-1.063-1.406-.344-3.719-1.25-1.25-.875-3.156h-4.437l-.875-2.5-1.406-.156-.72 1.406-2.812-.188-2.656-4.062-1.062-.156-2.125-1.063-1.25 1.219h-3.157l-1.593-3.344z" class="land departement15" style="fill:#55d400;stroke:#fff;stroke-opacity:.29045644" transform="translate(-27.84 -49.04)"/><path d="m337.714 371.822-1.406.719v1.219l-2.125.187-1.937 1.594-3.532.531-.812 1.156.625.063.875 2.5h4.437l.875 3.156 1.25 1.25.344 3.719 1.063 1.406 2.125.188-1.25 1.062-1.063.344.906.875-1.062 1.594 2.125 1.25 1.062 1.593v1.656l.469-.156 3.531 9 5.063-1.562.375-2.344h1.969l.78 2.719 3.626-.875 4.5 5.75 2.812-4.469 5.063-3.719h4.687l1.563-4.875 3.125-.219.219-3.687h2.906l-.563-1.375-.781-2.531 1.156-1.969 2.75-1.156 1.157-4.688-2.532-2.937-3.125.187.375-3.719-6.25-2.718-2.125.187-4.312 3.531-3.938-1.28-.781.75-2.469-.72-1.75-1.78-1.062 2.124-3.031-.156-1.407-1.25-1.062 2.469-1.938-.875-1.25-2.313h-1.593l-1.407-1.219-2.125.875-2.468.188-1.407-.906-.875.531z" class="land departement43" style="fill:#55d400;stroke:#fff;stroke-opacity:.29045644" transform="translate(-27.84 -49.04)"/><path d="m318.996 324.978-2.657 3-.187-1.062-2.125.187v1.594l-1.219.344-1.25 3-1.594.719-2.968-2.313.28 4.594 1.563 1.937.782 3.719-2.344 1.75-.563 2.75-2.156 1.156-3.719 2.156.375 1.75 4.5 4.5.407 2.75-1.782 2.907v2.75l1.188 1.375.594 3.312-.375 1.344 6 1.75 1.593 3.344h3.157l1.25-1.219 2.125 1.063 1.062.156 2.656 4.062 2.813.188.719-1.406.78.093.813-1.156 3.532-.531 1.937-1.594 2.125-.187v-1.22l1.406-.718.375.875.875-.531 1.407.906 2.468-.187 2.125-.875 1.407 1.218h1.593l1.25 2.313 1.938.875 1.062-2.469 1.407 1.25 3.03.156 1.063-2.125 1.75 1.781 2.469.72.781-.75-1.531-.5-.594-2.344 3.719-3.5-1.75-6.438-5.094-3.344-2.125-5.062-2.343-3.125.593-4.313 1.75-1.75-3.125-2.531.094-.781-2.75-1.094-.875-2.125-3 .156-2.312-.531-.344-2.469-1.781-.875-2.282 1.406-2.656-.53-1.781.187-6-.875-4.938-2.844-.375-1.406-2.093-2.313 1.406-1.937-.531-1.063z" class="land departement63" style="fill:#55d400;stroke:#fff;stroke-opacity:.29045644" transform="translate(-27.84 -49.04)"/><path d="m199.12 474.01-1.937 1.03.344.032 3.312 5.469-2.156 1.969 1.563 2.343 2.343 3.5-1.937 2.531-3.125 7.032-5.281 4.5 1.375 2.75-1.188.781-2.906-.594-.813 6.438-1.562 1.187-.313 4.032.5-.282 3.313 1.969 3.906 2.938.375 2.343 3.125 2.532h2.563l6.437-2.75 2.719 3.125 3.719 1 1.375-2.344 1.75.781 3.78.25-.25-10.5h1.97l1.75.875 1.25-1.219-.188-1.937 2.469-1.438-.875-3.687-1.063-.906-2.125.718 1.063-1.781-.531-2.281-3.188-2.313.188-1.594 1.78-3 2.282-.875v-1.25l1.406-2.125.938-1.312-3.563-1.844h-4.781l-.719-1.437h-2.468l-.72-1.594h-2.28l-.72.719h-2.655l-.157-1.594-2.125-1.406.719-.719.344-1.75-.531-.531-1.063-2.844-2.312-.344-2.282-1.25.157-3.344z" class="land departement65" style="fill:#f60;stroke:#fff;stroke-opacity:.29045644" transform="translate(-27.84 -49.04)"/><path d="m192.058 474.353-2.812 1.594-5.657-.187-.531-.875-3.719 1.25-2.843.875-2.125-1.594-2.282.719-.718-.907h-2.813l-1.781.906-4.594-.187-2.469 1.938-4.437-.344-.875 1.25-1.063-.375 1.407-1.406-2.47-1.938-3 2.656-5.124.344-5.625-2.812-.813 1.437-4.5 5.469-3.5 1.375-2.531.375v2.156l2.344 2.156 3.5.188.187 2.531 2.75.219.782-1.781 3.718 1.562 2.344.594.563 2.344-1.344 1.187v3.688l-2.75 1.375-.188 1.75 1.75 1.968 3.125.969.594-2.937 1.75-1.938-.187 2.531 1.375 1.969h3.5l1.562 2.125 4.688.781 4.5 2.75h7.406l.406 4.094 5.063 3.906 1.968 2.344 2.157-1.156 1.937-.407.969.97 1.781-.97 3.406-1.875.313-4.03 1.562-1.188.813-6.438 2.906.594 1.188-.781-1.375-2.75 5.28-4.5 3.126-7.031 1.937-2.532-2.343-3.5-1.563-2.344 2.156-1.968-3.312-5.469-5.281-.375z" class="land departement64" style="fill:#f60;stroke:#fff;stroke-opacity:.29045644" transform="translate(-27.84 -49.04)"/><path d="m159.714 419.916-6.187 3.187-1.594.063-3.469 18.562-4.5 17.188-1.375 6.656-1.156 4.688-2.906 5 5.625 2.812 5.125-.344 3-2.656 2.469 1.938-1.407 1.406 1.063.375.875-1.25 4.437.344 2.469-1.938 4.594.188 1.781-.907h2.813l.718.906 2.282-.718 2.125 1.594 2.843-.875 3.719-1.25.531.875 5.657.187 2.812-1.594-1.375-2.406 1.375-3.719 1.938-2.531-.594-3.312 1.562-1.563-2.312-3.906 1.937-2.344 2.157-.406 1.937.781 2.75-2.344.969 2.938.969 1.375 2.156-.594-.188-2.531.625-1.375-.468-1.219.53-3.875 2.126-2.125-1.063-1.25-2.312-.187-2.656-1.032-3.875.344-.72-4.25-2.468-3-1.062-.344.375 3.531v1.063l-3.375.156-3.532-1.219-.718-4.437-2.47-2.656-1.75-.156-.187-1.594-1.937-1.25-3.188-.875.875-1.063v-1.062l-1.062-.875-1.219-1.063-3.562.531-2.094 1.75-1.438.188-2.281-1.594-3.375 1.406-1.594-1.062 1.438-1.75.156-2.312z" class="land departement40" style="fill:#f60;stroke:#fff;stroke-opacity:.29045644" transform="translate(-27.84 -49.04)"/><path d="m161.152 360.697-3.125 4.688-.969 16.406-2.531 16.594-1.781 12.875-.188 3.343 1.375-4.5 2.719-3.531 3.906 3.531.406 1.156 1.157 1.563-4.875.219-.782-1.188-1.937.781-.406 2.938-2.157 2.938v4.468l-.031.188 1.594-.063 6.187-3.187 3.344 1.219-.156 2.312-1.438 1.75 1.594 1.063 3.375-1.407 2.281 1.594 1.438-.187 2.094-1.75 3.562-.532 1.219 1.063 1.062.875v1.062l-.875 1.063 3.188.875 1.937 1.25.188 1.594 1.75.156 2.469 2.656.718 4.438 3.532 1.218 3.375-.156v-1.062l-.375-3.532 1.062.344 2 2.438 3.125-.5 1.438-1.407-.188-1.937-1.25-1.063.375-1.969h1.938l1.937-1.218-.875-1.781-.531-2.657 1.406-2.469 3-4.593 1.781-2.125 1.594-.531.344-1.75-2.125-.188-.875-1.937.687-1.938 2.5-.531 1.75-.531 2.063-.282-.125-.094-.156-3.875 1.937-1.406-2.469-1.594-2.468 3-6.032.188-.531-1.437-1.75-.875 1.406-1.782v-1.937l-.718-1.063v-1.062l1.78-1.063.532-3.156 1.063-2.844-1.063-1.594h-1.937l-1.032-1.218-1 2.094-1.937-1.375-2.75 1.375-2.344-.375-4.469-4.5-2.75-.188-.781-6.25-5.094-.594-.187-2.937-.969.969h-5.781l.281 1.25 1.375 5.656.375 5.656-.969 1.563-.968-4.688-2.75-10.719-9.97-9 .22-4.094z" class="land departement33" style="fill:#f60;stroke:#fff;stroke-opacity:.29045644" transform="translate(-27.84 -49.04)"/><path d="m229.746 355.947-1.75 3.125-2.75.375-.188 4.688-9.187 6.25-.188 6.843-3.531 3.5-1.938 1.781-3.906-.406-2.156 3.719-.563 1.219 1.032 1.219h1.937l1.063 1.593-1.063 2.844-.531 3.156-1.781 1.063v1.062l.718 1.063v1.937l-1.406 1.781 1.75.875.531 1.438 6.032-.187 2.468-3 2.469 1.593-1.937 1.406.156 3.875 2.844 1.97.343 3.687 3 1.062 1.782-1.594h3.875l2.125-1.75 1.25.188.343 1.406h3.907l.875-1.062 1.406.187 1.594 1.75v1.25l-1.407.875.532 1.25 1.937.156 2.469-2.28h2.125l1.406 1.593 3.063 1.281.187-.5 1.781-1.75.188-2.937 4.281-.375 2.75-3.906-1.187-.407-.188-2.125 3.313-.406.218-1.937 1.563-1 1.75-3.125-1.75-1.938v-2.156l1.344-1.156-1.75-2.75.187-4.282-4.281.188-1.75-1.188 1.562-1.937-2.156-1.75 1.563-1.969-1.563-.781v-2.719l3.906-3.531-2.156-1.75-1.156-2.938-4.125-.594-1.375-.968 2.937-1.375-.968-1.344-4.282-.594-1-3.906-6.25-.594-1.375 1.969-1.343.375-1.782-2.344.813-2.156-1-1.937z" class="land departement24" style="fill:#f60;stroke:#fff;stroke-opacity:.29045644" transform="translate(-27.84 -49.04)"/><path d="m215.152 408.853-2.063.281-1.75.532-2.5.531-.687 1.938.875 1.937 2.125.188-.344 1.75-1.594.53-1.781 2.126-3 4.594-1.406 2.468.531 2.656.875 1.782-1.937 1.219h-1.938l-.375 1.968 1.25 1.063.188 1.937-1.438 1.406-3.125.5.469.563.719 4.25 3.875-.344 2.656 1.031 2.312.188 1.063 1.25-2.125 2.125-.531 3.875.468 1.219.75-1.563 2.313 1.969 3.125-3.125 1.375 1.938 3.312-.594 3.532-.375 1.562-2.75 5.844-.563 2.937 2.906 1-.968 1.938-.594-.781-2.719 2.937-.781 3.719-.781-.813-2.344 1.188-1.375.969-3.719-2.157-2.344 1.375-4.468 2.938 1.75 4.312-.781-1.968-4.313-1.563-5.844 3.906-.187.782-2.063-3.063-1.281-1.406-1.594h-2.125l-2.469 2.281-1.937-.156-.532-1.25 1.407-.875v-1.25l-1.594-1.75-1.406-.187-.875 1.062h-3.907l-.343-1.406-1.25-.187-2.125 1.75h-3.875l-1.782 1.593-3-1.062-.343-3.688z" class="land departement47" style="fill:#f60;stroke:#fff;stroke-opacity:.29045644" transform="translate(-27.84 -49.04)"/><path d="m267.37 392.79-4.156 1.938-.593.094.125.188-1.344 1.156v2.156l1.75 1.938-1.75 3.125-1.563 1-.218 1.937-3.313.406.188 2.125 1.187.406-2.75 3.907-4.281.375-.188 2.937-1.781 1.75-.969 2.563-3.906.187 1.563 5.844 1.656 3.625 2.5-.094.156 1.031-1.406 1.594 1.062 2.125h1.594l1.75 1.938h1.594l1.25-1.406.344.375v1.75l.53 2.312 3.72.156 3-3.187 1.593-.156.532.875.875 1.937h1.437l.531-3.531 3 .375 1.75-2.125 2.844.687 4.25-1.937.031.375 1.375-1.438-1.781-2.656-.687-3.531 2.28-1.938 1.063.344 3.188-3.531 1.75.187.719-.906h3.53l1.25-1.406.345-1.094-1.594-.219 1.094-3.312-2.5-1.094 2.5-5.812-3.313-2.47-1.125-7.187-3.031-.812-2.219 2.187-1.094-1.937-3.312 3.312-2.219.281-3.844-5.5z" class="land departement46" style="fill:#f60;stroke:#fff;stroke-opacity:.29045644" transform="translate(-27.84 -49.04)"/><path d="m257.12 491.853-1.25.875-.53 1.063 2.468 1.781.719 1.25-.531 1.031-4.25.375-1.22 1.75.157.531 1.594.532.906 1.25-1.062 1.75-1.25-.156-1.938-1.782-2.312-.687-2.282.156-4.062 2.469.156 3.375 1.063.719-.688 2.625-4.625 1.25-1.75 2.125v3.53l.719 1.063-1.656 1.532 1.062.593 6.031 1.157h2.563l3.312 4.312 8.407-.406 3.312 5.281 2.938-1.187 8.593 1.187.625 3.594 6.063-1.407 2.219-1.937 3.312-.844.813-1.656 7.187-.531-4.406-5.25-3.594 1.937-6.344-5.25 1.375-1.937h4.969l-.562-4.688v-3.593l-.813-6.657-9.687-4.687.562-1.656-1.844-2.063-1.562.656-2.125.344-3.906-1.781-1.063-.344 1.594 1.938-.688 1.593-3.375-.344-.156-1.78-1.969-2.657z" class="land departement09" style="fill:#f60;stroke:#fff;stroke-opacity:.29045644" transform="translate(-27.84 -49.04)"/><path d="m227.777 447.353-5.844.563-1.562 2.75-3.532.375-3.312.594-1.375-1.938-3.125 3.125-2.313-1.969-1.375 2.938.188 2.531-2.156.594-.97-1.375-.968-2.938-2.75 2.344-1.937-.781-2.157.406-1.937 2.344 2.312 3.906-1.562 1.563.594 3.312-1.938 2.531-1.375 3.719 1.563 2.75 4.937.344 1.938-1.031h3l-.157 3.343 2.282 1.25 2.312.344 1.063 2.844.53.531-.343 1.75-.719.719 2.125 1.406.157 1.594h2.656l.719-.719h2.28l.72 1.594h2.468l.719 1.437h4.781l3.563 1.844.312-.437 1.938-1.063 3.531-4.594 6.563.531 2.812 1.938.906-1.25 1.407-4.219 1.75-4.062 3.718-1.594 1.782-.719-.532-1.594-1.781-.187-.687-1.75h-1.438l-2.281-2.312.156-1.594-3-3-.531-1.906-1.938.843-.531-1.062 1.25-1.938-1.437-1.406v-2.469l-1.22-1.25-3.905-.187v-2.281l2.125-1.594v-1.781l2.312-1.063-1.25-.687-1.406.687h-2.844l-.875-.812-.469.156-1 .969z" class="land departement32" style="fill:#f60;stroke:#fff;stroke-opacity:.29045644" transform="translate(-27.84 -49.04)"/><path d="m264.902 457.916-2.844 1.062-.875 1.406-1.062-1.218-1.938-.188-.375 1.781-1.219.5 1.75.907-1.218 1.937-4.438 1.25-1.937-2.312h-1.75l-1.438.875h-5.125l-.531.219.531 1.906 3 3-.156 1.594 2.281 2.312h1.438l.687 1.75 1.781.188.532 1.593-1.782.719-3.718 1.594-1.75 4.062-1.407 4.219-.906 1.25-2.812-1.937-6.563-.532-3.531 4.594-1.938 1.063-1.25 1.75-1.406 2.125v1.25l-2.281.875-1.781 3-.188 1.593 3.188 2.313.53 2.281-1.062 1.781 2.125-.719 1.063.907.875 3.687-2.469 1.438.188 1.937-1.25 1.219-1.75-.875h-1.97l.25 10.5 7.938.531.407-9.593 2.718.406 4.032 2.343 1.656-1.53-.719-1.063v-3.532l1.75-2.125 4.625-1.25.688-2.625-1.063-.718-.156-3.375 4.062-2.469 2.282-.156 2.312.687 1.938 1.781 1.25.157 1.062-1.75-.906-1.25-1.594-.531-.156-.532 1.219-1.75 4.25-.375.53-1.031-.718-1.25-2.469-1.781.532-1.063 1.25-.875 1.218.344 1.969 2.656.156 1.781 3.375.344.688-1.594-1.594-1.937 1.063.344 3.906 1.781 2.125-.344 1.562-.656-.375-.406 2.5-1.125.532-3.031 3.062-1.375-.844-1.938 2.782-2.5 1.375 2.5 4.125-1.375.78-.125.063-1.281v-2.5l-2.125.375-2.656-.719-2.312-2.812-.875-1.25-4.594-1.938-1.063-1.594 1.407-.531v-1.937l-1.407-1.594-1.781-2.844-.156-2.469-.531-.344-2.125-2.5-.875-2.625z" class="land departement31" style="fill:#f60;stroke:#fff;stroke-opacity:.29045644" transform="translate(-27.84 -49.04)"/><path d="m240.09 430.166-1.376 4.469 2.157 2.343-.97 3.719-1.187 1.375.813 2.344-3.719.781-2.937.781.78 2.719-1.468.438.875.812h2.844l1.406-.687 1.25.687-2.312 1.063v1.78l-2.125 1.594v2.282l3.906.187 1.219 1.25v2.469l1.437 1.406-1.25 1.938.531 1.062 2.469-1.062h5.125l1.438-.875h1.75l1.937 2.312 4.438-1.25 1.218-1.937-1.75-.906 1.219-.5.375-1.782 1.938.188 1.062 1.219.875-1.407 2.844-1.062 1.281.594 1-1.657-1.75-1.937h3.344l1.062-1.938 2.313-2.125h-2.313l.719-3 6-.719 2.313-1.406 2.812-1.062.906-.906-1.093-2.813 1.593-3.187-2.812-.188-.344-4.406-4.25 1.937-2.844-.687-1.75 2.125-3-.375-.531 3.531h-1.437l-.875-1.937-.532-.875-1.593.156-3 3.187-3.72-.156-.53-2.312v-1.75l-.344-.375-1.25 1.406h-1.594l-1.75-1.938h-1.594l-1.062-2.125 1.406-1.594-.156-1.03-2.5.093.312.688-4.312.78z" class="land departement82" style="fill:#f60;stroke:#fff;stroke-opacity:.29045644" transform="translate(-27.84 -49.04)"/><path d="m314.59 398.853-5.532 4.719v4.688h-1.375l-.562 4.406-1.375.562-1.094 2.469h-6.094l-.531-.812h-2.781l-1.657 2.75-.593-.063-.344 1.094-1.25 1.406h-3.531l-.72.906-1.75-.187-3.187 3.531-1.062-.344-2.281 1.938.687 3.531 1.781 2.656-1.375 1.438.313 4.031 2.812.188-1.593 3.187 1.25 3.188 1.593-.907.719 1.594 2.281-2.281 3.375-.188 3.344 2.469 5.844 1.063 2.125 3.718 3 1.406 1.594 4.063-.188 1.594 1.938 3.562v1.938l3.53 4.594 3.376 1.75 2.125-.532 1.062-1.406 1.594.375 3.656 2.344h4.969l-.281-5.781v-1.938h1.656l3.031 1.656h3.032l-.532-3.312 1.657-1.406 3.312-.532v-2.781l3.594-1.656-.844-3.844h-3.031l-2.75-.562-.563-2.22 2.219-.53v-2.782l2.188-1.937-1.657-.813-4.687.813.281-2.188-3.312-1.406-.844-6.625v-4.687l-2.75-1.938.281-3.875-5.812-7.156-.563-5.531h-1.906l-.844-5.532-3.875.563-.531-3.594z" class="land departement12" style="fill:#f60;stroke:#fff;stroke-opacity:.29045644" transform="translate(-27.84 -49.04)"/><path d="m290.714 442.353-3.375.188-2.281 2.281-.719-1.594-1.593.906-.157-.375-.906.907-2.812 1.062-2.313 1.406-6 .72-.719 3h2.313l-2.313 2.124-1.062 1.938h-3.344l1.75 1.937-1 1.656.313.125.875 2.625 2.125 2.5.53.344.157 2.469 1.781 2.844 1.407 1.594v1.937l-1.407.531 1.063 1.594 4.594 1.938.875 1.25 2.312 2.812 2.656.719 2.125-.375v2.5l-.062 1.281 1.156-.156-.281 1.375h3.875l3.594 1.125.28-3.594h1.657l6.063 1.094h5.812l4.406-1.375 1.125-3.594-3.031-2.781.813-2.75 1.656-2.469 2.75 1.906 7.187-2.469 1.125-2.218-3.656-2.344-1.594-.375-1.062 1.406-2.125.531-3.375-1.75-3.531-4.593v-1.938l-1.938-3.562.188-1.594-1.594-4.062-3-1.407-2.125-3.719-5.844-1.062z" class="land departement81" style="fill:#f60;stroke:#fff;stroke-opacity:.29045644" transform="translate(-27.84 -49.04)"/><path d="m403.183 308.072-2.156.219-1.375 2.531-3.688 14.438-.531 1.187-.375 4.563-1.062 1.468v6.594l-.625 1.5 3.812 2.313 1.5.218 2.344 2.125.406 3.406 2.563-.843 3.968 1.156.063-.75h1.906l2.75 2.563 2.563-1.282 1.28-3.812 1.282-1.5 1.688.219 1.687 1.5.875 2.75 7.844 9.562 2.344-1.687.406-3.625 2.562-.438v-6.375l1.282-1.062.406-5.72.5.407-.063-2.094-1.062-1.937.437-5.5 1.907 1.062 1.062-1.937 1.906-.625 1.969-1.563h-2.125v-3.719l2.344-1.375 3.5-.375.219-1.968-1.188-.781 2.938-3.72-.407-1.156-3.343-1.78-8.125 8.937h-5.657v-2.344l-3.125-1.562-3.718 4.093-2.938.406v-2.75l-2.531-1.156-3.906-5.469-3.532-1.375-1.156-2.53-1.969-.407-1.937 1.375-1.563.406z" class="land departement01" style="fill:#55d400;stroke:#fff;stroke-opacity:.29045644" transform="translate(-27.84 -49.04)"/><path d="m417.808 344.166-1.281 1.5-1.281 3.812-2.563 1.281-2.75-2.562h-1.906l-.219 2.781 2.781 2.344-4.25 5.5-5.531 1.281-4.25 1.5 2.75 2.75.656 1.281-4.25 2.125-.437 6.157-.125.062 1.187 2.469 3.407 1.063 2.343-.844 2.75-1.906 3.625 2.968h2.969l2.125 2.969-.875 2.125.438 3-1.063 2.969.438 1.062 1.468-.437 3.407 1.062 4.468 1.281 1.907-1.28.843-1.47h.657l.187 15.907 1.063 1.062h2.78l2.532 1.5 1.906 1.5 1.938.188 1.25 1.062 3.531.406.25-.593-1.562-.781v-2.344h4.875l1.562-1.563-.969-1.75 2.532-1.969 1.78.782 2.532-2.156 4.469.78 1.562-1.75 3.719.188v-4.281l-1.562-.781-.782-2.531-4.093-.407-.594-.969.781-4.093 1.375-1.188-1.125-1.531-2.125-1.281-1.281 1.281.437-1.719v-1.687l-1.718-1.719.875-4.031 1.906-1.063-.219-2.75-4.031-4.031h-1.5l-1.063 1.469-2.531-3.375-1.5.187-1.281 2.781.875 1.688-.656.656-1.688-1.281-4.906-1.062-2.313-4.25v-1.72l-2.343-2.53-.25-1.094-7.813-9.531-.875-2.75-1.687-1.5z" class="land departement38" style="fill:#55d400;stroke:#fff;stroke-opacity:.29045644" transform="translate(-27.84 -49.04)"/><path d="m466.027 311.666-4.469.781-4.312 3.5-1.157-1.75-2.156.188-1.969 4.312.219 1.75 2.125 1.75-3.906 2.563-2.531 2.343h-4.313l-1.969 1.563-1.906.625-1.062 1.937-1.907-1.062-.437 5.5 1.062 1.937.063 2.094 1.625 1.281v5.531l3.844.625 1.468 2.782 3.407.406.625-1.25h1.718l2.969 3.188 1.063 1.062 3.406-.656.844-1.688.843-3.406 1.907-1.5 1.5-4.437 1.906-1.282 1.5.406.406 1.282-1.062 1.281 1.906 2.344h3.187l1.938 3.187-.438 1.063 1.907-1.281 1.5-1.688 1.312.156.094-3.406 6.656-2.75.781-1.937-.406-4.313-4.281-4.469-1.375.781v-4.687l-3.719-1.781-.187-1.563 2.156-2.344v-2.718l-3.531-3.719-.188-2.531z" class="land departement74" style="fill:#55d400;stroke:#fff;stroke-opacity:.29045644" transform="translate(-27.84 -49.04)"/><path d="m359.433 323.51-3.531.593-.563 2.156 1.375 2.72.375 11.124-4.687.219-.188 1.75 3.125 2.531-1.75 1.75-.593 4.313 2.343 3.125 2.125 5.062 5.094 3.344 1.75 6.438-3.719 3.5.594 2.343 5.469 1.781 4.312-3.53 2.125-.188 6.25 2.719-.375 3.718 3.125-.187 2.469 2.844 1.813-.5 3.375-.625.875-3.844 4.656-2.75.437-6.156.157-.094-2.282-.344-2.125.844-1.718-1.063 2.125-2.531-.625-1.906-6.594-1.063-5.531-5.094v-1.718l1.28-1.063v-1.469l-1.468-.875 1.25-1.906v-2.75l-2.531-2.344v-2.343l-1.719-1.688v-1.906l-.844-3.187 1.282-1.282.218-3.812h4.032l1.062-1.281-1.281-2.125v-1.907l-1.063-.844-.75 4h-2.156l-1.562 1.563-1.188-1.187-6.25-.97-2.344 1.376h-1.562l-.375-1.375-2.938-.594-.187-3.125z" class="land departement42" style="fill:#55d400;stroke:#fff;stroke-opacity:.29045644" transform="translate(-27.84 -49.04)"/><path d="m391.652 320.79-2.125.188-1.781 1.75-1.157-1.562-1.75 1.562-2.375-1.562h-1.937l-.781.594-.407 2.25 1.063.843v1.906l1.281 2.125-1.062 1.282h-4.032l-.218 3.812-1.282 1.281.844 3.188v1.906l1.719 1.688v2.344l2.531 2.343v2.75l-1.25 1.906 1.469.875v1.47l-1.281 1.062v1.719l5.53 5.093 6.595 1.063.625 1.906-2.125 2.531 1.718 1.063 2.125-.844 2.282.344 4.093-2.031-.656-1.282-2.75-2.75 4.25-1.5 5.531-1.281 4.25-5.5-2.781-2.344.156-2.031-3.968-1.156-2.563.844-.406-3.407-2.344-2.125-1.5-.219-3.812-2.312.625-1.5v-6.594l1.062-1.469.375-4.562-.656 1.563-1.375-.188-.75-3.906z" class="land departement69" style="fill:#55d400;stroke:#fff;stroke-opacity:.29045644" transform="translate(-27.84 -49.04)"/><path d="m436.902 339.29-.406 5.72-1.282 1.062v6.375l-2.562.438-.406 3.625-2.344 1.687-.031-.031.25 1.094 2.343 2.53v1.72l2.313 4.25 4.906 1.062 1.688 1.281.656-.656-.875-1.687 1.281-2.782 1.5-.187 2.531 3.375 1.063-1.469h1.5l4.031 4.031.219 2.75-1.906 1.063-.875 4.031 1.718 1.719v1.687l-.437 1.719 1.281-1.281 2.125 1.281 1.125 1.531 3.531-.375 1.157 1.156.593 2.75 3.5-.406.407-2.937 1.75-.781 3.75.187-.063-.125 5.844-2.344 2.156 1.375h2.156l.188-2.344 2.531-1.375.969-1.156 5.094-1.969.593-3.312-1-1.562 2.75-4.688-2.531-.969-.781-2.75-5.281-3.125s.315-5.987-.188-7.062a1 1 0 0 0-.062-.094l-.032-.031h-.031v-.031h-.094c-.781.195-3.687.406-3.687.406l-2.938-3.344.094-3.219-1.312-.156-1.5 1.688-1.907 1.28.438-1.062-1.938-3.187h-3.187l-1.906-2.344 1.062-1.281-.406-1.281-1.5-.407-1.906 1.281-1.5 4.438-1.907 1.5-.843 3.406-.844 1.688-3.406.656-1.063-1.062-2.969-3.188h-1.718l-.625 1.25-3.407-.406-1.468-2.781-3.844-.625v-5.532z" class="land departement73" style="fill:#55d400;stroke:#fff;stroke-opacity:.29045644" transform="translate(-27.84 -49.04)"/><path d="m395.152 373.978-4.531 2.688-.875 3.844-3.375.625-1.813.5.063.093-1.157 4.688-2.75 1.156-1.156 1.969.781 2.531.563 1.375h-2.906l-.22 3.688-3.124.218-1.563 4.875h-4.687l-5.063 3.719-2.812 4.469.469.594 1.375 7.187 3.312 3.594-.562 4.125 4.156 2.5v5.531l2.219-1.125 4.687 3.063 2.219.812.531-3.875 2.781-.531.813 3.031 2.781-.281.531-3.031 6.344 3.562 1.031-2.094 2.688-.406.219-4.125-.625-.875-.844-.187v-1.5l.625-1.5-1.063-1.688.625-3.812 2.563-3v-4.22l-1.063-4.906 1.907-.406.437-2.125 1.906-3.625 1.063-2.75-1.688-4.25-1.062-3.406-1.5-5.937v-7.97l-1.063-.343z" class="land departement07" style="fill:#55d400;stroke:#fff;stroke-opacity:.29045644" transform="translate(-27.84 -49.04)"/><path d="m404.84 374.76-2.75 1.906-2.344.844-2.344-.72v7.97l1.5 5.937 1.062 3.406 1.688 4.25-1.063 2.75-1.906 3.625-.437 2.125-1.907.406 1.063 4.907v4.219l-2.563 3-.625 3.812 1.063 1.688-.625 1.5v1.5l.844.187.625.875-.22 4.125 2.595-.375 1.156 1.375-.563 3.906.782.969 2.906-2.937 2.562-.188.563-1.562-3.313-.407-.562-3.5 2.125-3.312 2.75-.219 2.719 2.563-2.72 3.687.782 1.375 3.906.406 2.532-2.156-1.375 2.938.406 2.343 4.094.375 5.468.406.782 2.532 2.937 2.156 2.531.188 1.75-1.563 1-2.937 1.563 1.375 1.156 1.375.781-7.25-1.937-.375-1.188-2.532-6.625-1.781-.812-3.312 2.375-1.563-1.969-1.375.406-1.75 3.125.188 2.719 1.375 2.156-2.532-2.156-1.75.188-2.344 1.187-3.718 4.094-.406 3.312-1.344.344-.781-3.531-.407-1.25-1.062-1.938-.188-1.906-1.5-2.531-1.5h-2.781l-1.063-1.062-.187-15.906h-.657l-.843 1.468-1.907 1.281-4.468-1.28-3.407-1.063-1.468.437-.438-1.062 1.063-2.969-.438-3 .875-2.125-2.125-2.969h-2.969z" class="land departement26" style="fill:#55d400;stroke:#fff;stroke-opacity:.29045644" transform="translate(-27.84 -49.04)"/><path d="m169.214 316.103-2.75.188-5.968 3.625 1.437 1.312-3.125 2.531-.375 1.97-2.937.374-1.563-1.75-3.906-.375-.406-1.969-2.344-1.562-3.313 1.188 2.157 3.125h2.718l2.75 1.75 2.157 1.75 4.093-.188.782 1.75 2.718.594 1 2.719 1.75.78-.187 2.157-2.344-.375-.781 1.156 1.75 2.531-.969 4.313-2.344-.187.188 2.718.594.969h-2.75l-.375-1.562 1.75-2.344-.594-1.344-.969-.781-.406-4.688-3.313-.406-2.718-3.312-.407 6.843 4.5 3.313.375 3.719.782 4.28.406 4.313 2.344-.219 4.093 3.344 2.75 1.563.188 1.937 2.156.406 6.25 6.25 1.469 6.75h5.781l.969-.968.187 2.937 5.094.594.781 6.25 2.75.188 4.469 4.5 2.344.375 2.75-1.375 1.937 1.375 1.563-3.313 1.562-2.719-4.156-2.812-1.281-1.719-1.719-1.906-4.031.656-1.281-.656-.188-1.063 2.125-.844v-.406l-1.5-.437-1.062-.844 2.562-2.125v-1.5l-1.281-1.281.844-.844.437-2.125-1.5-1.469-1.281-2.125-2.313-2.125-1.718-1.062 1.5-1.719-.844-.187-.219-4.47-1.719-.656 2.344-1.25h2.781l1.25-1.062h2.344l.438 1.063 2.125.187 1.468-.625.438-4.031 1.687-6.156.063-.032-1.531-1.469-.438-2.125-2.75-1.28-3.625-2.532-4.469.406-2.75-3.594-4.031-.218-3.187-2.344v-1.281l-2.125-2.313-.094-2.875-2.938-2.187-3.718 1.562z" class="land departement17" style="fill:#f60;stroke:#fff;stroke-opacity:.29045644" transform="translate(-27.84 -49.04)"/><path d="m285.652 353.103-.844 2.125-3.187.625-1.25 2.125h-1.5l-2.125-.625-1.5 2.531-2.313.22-1.5 2.75h-1.906l-1.5 1.5-3.813-.438-1.281 2.125-1.469-.188-2.562 3.188-2.344-.875-1.094 2.219.844 2.156 2.156 1.75-3.906 3.531v2.719l1.563.781-1.563 1.969 2.156 1.75-1.562 1.937 1.75 1.188 4.281-.188-.187 4.281 1.625 2.563.593-.094 4.157-1.937 4.968 2.219 3.844 5.5 2.219-.282 3.312-3.312 1.094 1.937 2.219-2.187 3.031.812.094.656 2.531-1.78-.781-1.938-1.188-1.188 1.563-1.937h1.562l1-3.125.782-1.563-.594-3.531 2.531-3.5 3.531-2.156.188-5.469 1.75.969 1.969 2.156h1.937l1.188-1.375-.97-2.344.97-3.5-.594-3.312-1.188-1.375v-2.75l1.782-2.906-.407-2.75-.437-.438-1.969 1.531h-3.844l-1.25 1.906h-2.343l-1.907-1.906-.875-1.281h-4.875l-1.062-1.469z" class="land departement19" style="fill:#f60;stroke:#fff;stroke-opacity:.29045644" transform="translate(-27.84 -49.04)"/><path d="m276.027 313.353-1.156 3.125-3.532-.187-.781-.406-2.344.218-1.75-1.187-3.375 3.875.063 2.875-2.344 4.656.438 2.344 2.53.625 1.72 4.25 1.687 1.719-.625 8.062 3.594-1.062 1.5 1.906-2.344 1.906v1.938l1.906.187 3.407-.187 1.062-1.5h.844l-.406 2.562 2.75 1.25 2.562 1.719v1.062h-1.5l.438 2.531 1 .625.25-.406 3.187-.625.844-2.125h1.5l1.062 1.469h4.875l.875 1.281 1.907 1.906h2.343l1.25-1.906h3.844l1.969-1.531-4.063-4.062-.375-1.75 3.719-2.157 2.156-1.156.563-2.75 2.344-1.75-.782-3.719-1.562-1.937-.375-6.063-2.156-5.062-2.157-.781-1.562-2.75-1.375 1.75-1.344-1.75v-2.344l-2.344-3.313-6.437.781-3.719-.968z" class="land departement23" style="fill:#f60;stroke:#fff;stroke-opacity:.29045644" transform="translate(-27.84 -49.04)"/><path d="m259.433 316.29-1.75 1.75-4.906-.374-.563-.125-3.718.687-2.157 1.781v2.344l-4.281.188-2.531 2.937-1.563 1.156 1.344 1.563-.187 5.281-.97 1.75 1.563 1.75 2.719.219.594 2.719.187 1.75-3.5.781-1.75.594.375 4.875-2.343 1.562-1.97.594-.968 2.75-1.562.188-.657 2.968 4.563.156 1 1.938-.813 2.156 1.782 2.344 1.343-.375 1.375-1.969 6.25.594 1 3.906 4.282.594.968 1.344-2.937 1.375 1.375.969 4.125.593.312.781 1.094-2.218 2.344.875 2.562-3.188 1.469.188 1.281-2.125 3.813.437 1.5-1.5h1.906l1.5-2.75 2.313-.219 1.5-2.53 2.125.624h1.5l1-1.719-1-.625-.438-2.53h1.5v-1.063l-2.562-1.719-2.75-1.25.406-2.562h-.844l-1.062 1.5-3.407.187-1.906-.187v-1.938l2.344-1.906-1.5-1.906-3.594 1.062.625-8.062-1.687-1.72-1.72-4.25-2.53-.624-.438-2.344 2.344-4.656-.063-2.875-.531.625z" class="land departement87" style="fill:#f60;stroke:#fff;stroke-opacity:.29045644" transform="translate(-27.84 -49.04)"/><path d="m208.652 271.166-3.719 3.906-.937 1.625.312 4.813 1.688-.22.218 2.126.657 3.406 1.062 2.344-1.281 1.469.625 1.062-.844 1.5v.625l1.5 1.719v1.062l-.656 1.688-2.125 3.187 2.125.844.656 1.5-.875 2.313-.187 1.062-1.282 2.125v1.5l.844.219v4.469l1.5 1.062-.656 1.469.219 1.281 1.687 1.906.875-1.281v-1.062l1.688-.844 1.28.844v3.187l-1.28 1.5-1.063 2.531 1.469 2.344 3 .844-.656 1.937-2.782.469 2.563 3.125 3.406-.219 2.969-1.062 3 1.719 1.062-.844-.218-2.781 1.687-1.282 1.5 2.563 1.25 1.281 3.625-1.5 1.5-1.687h3.375l1.75.875.125-3.688-1.344-1.562 1.563-1.157 2.531-2.937 4.281-.188v-2.344l2.157-1.78 5.28-.97.376-2.937-2.125-1.156-1.188-4.094-3.125-.406-1.937-1.938-3.719-2.937.781-2.344v-3.719l-3.531-3.5-.375-2.75-3.344-3.5-1.156-4.687-1.375-.594-1.562-2.156-1.563.969.406 2.156-5.093 1.187h-5.844l.187-2.344v-3.718l-4.687-1.375v-2.344l-3.719-.781-.781-3.125z" class="land departement86" style="fill:#f60;stroke:#fff;stroke-opacity:.29045644" transform="translate(-27.84 -49.04)"/><path d="m226.183 330.353-1.687 1.281.218 2.782-1.062.844-3-1.72-2.969 1.063-3.406.219-2.563-3.125-.812.156-3.406 1.688-2.563.656v1.469l-1.469 1.719.407 1.062-1.907 1.063-1.687 6.156-.438 4.031-1.468.625-2.125-.187-.438-1.063h-2.344l-1.25 1.063h-2.781l-2.344 1.25 1.719.656.219 4.469.844.187-1.5 1.719 1.718 1.062 2.313 2.125 1.281 2.125 1.5 1.469-.437 2.125-.844.844 1.281 1.281v1.5l-2.562 2.125 1.062.844 1.5.437v.406l-2.125.844.188 1.063 1.28.656 4.032-.656 1.719 1.906 1.281 1.719 4.156 2.812.594-1 3.906.406 1.938-1.78 3.531-3.5.188-6.844 9.187-6.25.188-4.688 2.75-.375 1.75-3.125 1.093.031.657-2.969 1.562-.187.969-2.75 1.969-.594 2.343-1.562-.375-4.875 1.75-.594 3.5-.781-.187-1.75-.594-2.719-2.719-.219-1.562-1.75.969-1.75.062-1.594-1.75-.875h-3.375l-1.5 1.688-3.625 1.5-1.25-1.281z" class="land departement16" style="fill:#f60;stroke:#fff;stroke-opacity:.29045644" transform="translate(-27.84 -49.04)"/><path d="m201.62 274.885-5.28.187-4.876.969-5.281.406v2.719l-2.719 1.781-6.062-1.375-4.094 1.75 1.938 2.75v2.344l4.687 3.906-1.156 2.531 3.125 3.5-1.375 1.781 1.937 2.907.594 5.469-1.156 1.562 1.375 2.344-1.375 2.562.187 1.563 1.563-1.188 1.937 1.969-2.718 1.75-.97 1.156-2.155.594-2.532 1.188-.187-.157.094 2.875 2.125 2.313v1.281l3.187 2.344 4.031.219 2.75 3.593 4.469-.406 3.625 2.531 2.75 1.281.438 2.125 1.53 1.47 1.845-1.032-.407-1.062 1.469-1.72v-1.468l2.563-.656 3.406-1.688 3.594-.625.656-1.937-3-.844-1.469-2.344 1.063-2.531 1.28-1.5v-3.187l-1.28-.844-1.688.844v1.062l-.875 1.281-1.687-1.906-.22-1.281.657-1.469-1.5-1.062v-4.47l-.844-.218v-1.5l1.282-2.125.187-1.062.875-2.313-.656-1.5-2.125-.844 2.125-3.187.656-1.688v-1.062l-1.5-1.719v-.625l.844-1.5-.625-1.062 1.281-1.47-1.062-2.343-.657-3.406-.218-2.125-1.688.219-.312-4.813-.407.719-1.375-1.156z" class="land departement79" style="fill:#f60;stroke:#fff;stroke-opacity:.29045644" transform="translate(-27.84 -49.04)"/><path d="m89.683 168.697-1.781 1.375-4.469.563-1 1.375-3.125-2.344-4.094 2.75 1.563 2.125-2.719 3.719-.125-.063-1.125 5.25 2.406.156-.156 2.094 1.781 1.125-1.625 1.625-1.125.813.157 1.906 2.437.812-2.281.656v2.407l1.469 1.937.312 5.656-.969.97.813 2.905 3.062.813.313 1.594 1.937.156 1.625-1.125.969.969 3.719 1.625 3.062-1.625.782-1.594 2.593-.187 2.907 2.593 2.75-.656 2.406 2.438h1.125l1.125 1.437h2.281l.781-1.125.969 2.094 2.438.969 3.062-1.938v-2.094l2.25-.812h1.438l1.78 3.25 3.876.312 1.937-2.437 2.094-4.5 2.75-.969 1.438-2.094 1.468 1.438 3.063-.625.969-8.875.968-3.563-.968-1.937-1.625-.625-1.094-5.906-1.25 1.406-3.719-.406-.375 2.156-2.344.187-.187-2.719-1.969-.593-1.375 1.562v-3.906l-2.344 1.75-3.5-.594-1.187 2.344-7.219 3.906v1.969h-1.562v-3.531l-4.094-1.938.375-3.531-3.688-2.719v-3.312l-2.75-.594.188-3.125-2.125-.187.187-2.157h-3.906l-.594 1.938z" class="land departement22" style="fill:#0cf;stroke:#fff;stroke-opacity:.29045644" transform="translate(-27.84 -49.04)"/><path d="m158.433 275.04-1.125 2.094h-3.219l1.282 1.313-.97 3.219-2.905.969-1.125-.813.5-3.219-.813-1.781h-1.781l-1.281 1.438.625 4.53 1.468 2.094-1.468 1.625-2.72-.5-4.03-.968-1.125-3.063-2.594-.312-3.375-1.469-.813-1.937-3.687-2.407-5.813 7.5-.187 4.688 6.031 5.844-.187 1.75h1.75l3.718 11.156 3.907 1.937 3.906 3.906h4.5l1.75 3.907h4.312l1.938 2.937 4.312 2.156.188-2.75 1.094 1.032 5.968-3.625 2.75-.188 1.157 3.125 3.718-1.562 3.125 2.344 2.532-1.188 2.156-.594.969-1.156 2.718-1.75-1.937-1.969-1.563 1.188-.187-1.563 1.375-2.562-1.375-2.344 1.156-1.562-.594-5.47-1.937-2.906 1.375-1.78-3.125-3.5 1.156-2.532-4.687-3.906v-2.344l-1.938-2.75.375-.156-2.656-2.25h-5l-1.625-.969-2.25-.312-2.594-2.438z" class="land departement85" style="fill:#0cf;stroke:#fff;stroke-opacity:.29045644" transform="translate(-27.84 -49.04)"/><path d="m139.464 122.978-.781 1.969 4.125 3.313v4.312l-1.562 1.938.968.968.594.406-.406 3.72 1.375 3.124 4.5 5.063.969 4.5.968 1.375v7.031l2.344 4.688v5.468l-2.531 5.063 2.719 7.031 4.312.969.375 1.969-2.125.968h-3.687l.593 2.469 1.157 3.719 3.343 2.937 1.563.375 1.562-2.125 1.75-.219 2.125-2.53 1.969 1.562h2.344l1.562.781v.375l3.313.406 1.969-1.562 2.906 1.187.062.125 3.344-2.844 1.125-3.718-.312-1.625.468-1.906-1.937-1.938-5-3.25-3.688-.312-3.718-4.688 3.062-1.125 1.281-2.406-1.593-1.469 1.437-1.281 1.438 1.125 2.593-1.594 1.625-2.594.625-2.562-1.125-2.281.657-.813-1.47-2.406 1.626-2.094-1.281-1.625-1.625 2.094-2.25-1.281-3.72-3.72-.155-1.593 1.125-1.125-.344-2.156-1.844.469-.187-4.688-5.094-6.031 1.562-3.906h2.157l-1.938-5.282-8.406-.406-4.5 3.125-5.063-3.312z" class="land departement50" style="fill:#0cf;stroke:#fff;stroke-opacity:.29045644" transform="translate(-27.84 -49.04)"/><path d="m75.902 206.072-3.25 1.563H70.37l-2.407 1.937.157 1.438 1.437 3.718.813 2.906 5 .813 2.437 1.938.969-1.157 1.594 2.125-.813.969-.156 2.875h-1.438l-1.125 1.781h-2.281l-.937 3.844 2.187 3.5 3.125.781 1.156-1.75-.562 2.125 2.719 1.188 3.53 3.5 1.157 2.156-.375 2.531-.406 2.563 2.344 1.75 1.187-1.375-1.187-1.563v-3.5l2.343.563.782-2.344.593 1.375 2.532 2.156 1.187-1.969-1.187-2.718 2.156 2.937 2.719-.406-.563-1.375 2.531.594 1.938 2.344-.969 1.562-2.531-.781-2.938-1.375-1.562 1.969 2.344.78 1.75 2.72 10.562-.97 2.719.595-1.344 1.156.188 1.781.375.281.843-.156 1.75-1.75 1.157 1.344h3.125l3.718-1.938 5.469-2.156.188-5.469 1.156-.625-2.063-3.875 1.782-1.437-.313-.969-1.125-.656 1.75-.813 1.625-1.937-.156-1.938h-2.094l-.5-1.906 1.469-1.937-1.625-2.907-2.406-1.469h-2.75l-.97-.312v-1.281l1.438-1.313.813-3.219-.469-2.093-.656.812-3.875-.312-1.781-3.25h-1.438l-2.25.812v2.094l-3.062 1.938-2.438-.97-.969-2.093-.781 1.125h-2.281l-1.125-1.437h-1.125l-2.406-2.438-2.75.656-2.907-2.594-2.593.188-.782 1.594-3.062 1.625-3.719-1.625-.969-.969-1.625 1.125-1.937-.156-.313-1.594-3.062-.812z" class="land departement56" style="fill:#0cf;stroke:#fff;stroke-opacity:.29045644" transform="translate(-27.84 -49.04)"/><path d="m60.558 174.54-2.125 2.345-2.344-.97-4.312.407-.781 1.938-2.532.593-.406-2.156-4.469.594v1.375l-3.125.187-1.375-.969-1.562.782-.406 2.344-5.25.187-2.75 3.313 2.343 1.75-3.125 2.562.969 1.75-.781 4.281 3.125.406 1.187-1.187.594.781 7.406-.969 4.875-3.5-4.281 4.094.375 1.938 3.906-1.75-.781 2.75 4.313.187-.188 1.156-4.687-.187-3.72-.969-4.5-2.156-2.718 3.125 3.5 1.188-.187 5.25.968-.782 2.157-3.312 4.093 2.344 1.969.406.781 3.125-1.187 2.125-2.531-.188h-2.344l-3.906.594-6.657.375-1.343 1.781 1.937 1.156 2.156-.187 1.75 1.563 2.532-.188 4.125 4.688.968 5.062-1.375 2.75 4.094.781 4.5-.219.969-1.75-1.75-2.343 1.75.781 1.781-.187 3.125 1.75 1.938-.375v-3.344l.78 3.344 2.532 4.093 5.469.375.219-1.156 1.343 1.938 3.344.593h2.531l.157.219.937-3.844h2.281l1.125-1.781h1.438l.156-2.875.813-.969-1.594-2.125-.969 1.156-2.437-1.937-5-.812-.813-2.907-1.437-3.719-.157-1.437 2.407-1.937h2.28l3.25-1.563-.687-2.469.969-.969-.312-5.656-1.47-1.937v-2.406l2.282-.657-2.437-.812-.157-1.906 1.125-.813 1.625-1.625-1.781-1.125.156-2.094-2.406-.156 1.125-5.25-3.219-1.875-5.468.188v3.906h-1.563l-.375-1.75-2.344.375z" class="land departement29" style="fill:#0cf;stroke:#fff;stroke-opacity:.29045644" transform="translate(-27.84 -49.04)"/><path d="m136.152 181.385-1.875 2.125 1.094 5.906 1.625.625.968 1.937-.968 3.563-.97 8.875-3.062.625-1.468-1.438-1.438 2.094-2.75.969-2.094 4.5-1.281 1.625.469 2.094-.813 3.218-1.437 1.313v1.281l.969.313h2.75l2.406 1.468 1.625 2.906-1.469 1.938.5 1.906h2.094l.156 1.938-1.625 1.937-1.75.813 1.125.656.313.969-1.782 1.437 2.063 3.875 3.937-2.094 12.094-.593.781-2.156 1.969-1.938 4.281-.594.188-2.156 2.937.406 1.75 2.344 3.938.969.75-1.563 1-3.531 2.531-6.25 1.375-.781 3.313.406v-5.281l-1.375-1.375v-5.656l-.594-1.938v-3.125l1.969-1.969v-3.906l-.97-.781.188-5.469-1.562-.781h-2.344l-1.969-1.563-2.125 2.531-1.75.22-1.562 2.124-1.563-.375-3.343-2.937-1.157-3.719-.593-2.469h-9.594l-3.531-2.156 2.343-3.125z" class="land departement35" style="fill:#0cf;stroke:#fff;stroke-opacity:.29045644" transform="translate(-27.84 -49.04)"/><path d="m152.777 231.322-.188 2.156-4.281.594-1.969 1.938-.781 2.156-12.094.594-5.093 2.718-.188 5.469-5.469 2.156-3.718 1.938h-3.125l-1.157-1.344-1.75 1.75-.843.156 1 .688-3.72 3.312.782.781.781 1.563-1.968 2.75 2.156 1.156 3.719.781.375-1.562 2.156 2.75h3.531l2.531-2.75h3.313l-3.5 1.75.187 1.969.782 1.75-2.157 2.156h-2.343l.406 2.938 4.281-.782 5.094 4.688-.25.312 3.687 2.406.813 1.938 3.375 1.469 2.594.312 1.125 3.063 4.03.969 2.72.5 1.468-1.625-1.468-2.094-.625-4.531 1.28-1.438h1.782l.813 1.781-.5 3.219 1.125.813 2.906-.97.969-3.218-1.282-1.312h3.219l1.125-2.094 1.125.156 2.594 2.438 1.875.25.062-2.032-1.625-2.094h-1.437l-.5.157-.969-.469.813-.812v-1.47l1.625-.468.968-2.25-.812-.812-.156-2.75h-2.094l-2.094-2.594v-1.906l2.25-1.157 4.031-.781 6.282.156 1.937-1.312-.656-4.031-2.906-2.72-3.532.47-.968-.813-.157-2.875 2.563-2.281-1.938-2.406-1.281-3.407-2.094-1.281v-2.25l-.218-.719-3.657-.906-1.75-2.344z" class="land departement44" style="fill:#0cf;stroke:#fff;stroke-opacity:.29045644" transform="translate(-27.84 -49.04)"/><path d="m161.84 234.166-.438.875-.281-.063.218.719v2.25l2.094 1.281 1.281 3.406 1.938 2.407-2.563 2.281.157 2.875.968.813 3.532-.47 2.906 2.72.656 4.03-1.937 1.313-6.282-.156-4.031.781-2.25 1.156v1.907l2.094 2.594h2.094l.156 2.75.812.812-.968 2.25-1.625.469v1.469l-.813.812.969.469.5-.156h1.437l1.625 2.093-.062 2.031.375.063 1.625.969h5l2.656 2.25 3.719-1.594 6.062 1.375 2.719-1.781v-2.719l5.281-.406 4.875-.969 5.282-.187.593 1.375 1.375 1.156 1.344-2.344 3.719-3.906h1.5l2.219-8 3.125-3.719-.22-4.281 1.97-2.563v-1.156l-.97-1.187.626-1.282-2.656-1.031-8.22-5-7.593-2.25-2.906-.156v-1.938l-1.781-1.469h-1.907l-3.562-1.124-2.25 2.25-5.156.187-2.282-1.312-5.781-1.75-1.312 1.593-3.22-2.094h-2.905z" class="land departement49" style="fill:#0cf;stroke:#fff;stroke-opacity:.29045644" transform="translate(-27.84 -49.04)"/><path d="m222.34 197.353-5.282.188-5.281 4.875-2.75-.156-3.656 1.187-1.125 1.938-.5 4.187.343 2.563-2.906 2.437-.812 1.594.656 1.469-.813 1.937.313.813-3.219.312-.469 1.438 1.438 3.562-.156.969-1.282 1.125-2.75.156-.343.969.656.969v5.812l-.625 1.469 1.75 1.437v1.938l2.906.156 7.594 2.25 8.219 5 2.656 1.031 1.312-2.625 3.907 2.75h2.156l-1.188-3.906 2.375 1.563 1.344-1.97 5.656-1.562-.968-2.344 1.375-1.75 2.937-1.156 2.719-3.531v-3.719h1.969l.78-2.719.188-4.093-1.937-1.781 1.562-2.72 2.313-2.937-2.719-1.937-2.531-.406-2.75-4.094h-.781l-.188 1.937-.187-1.344h-4.094l-1.969-2.937-3.312-1.187-.97-7.032z" class="land departement72" style="fill:#0cf;stroke:#fff;stroke-opacity:.29045644" transform="translate(-27.84 -49.04)"/><path d="m202.402 191.885-1.938.187-.812 1.938-2.906 1.187-5.282-.781-5.281 3.125-1.937-1.375-2.938 1.969-2.156-1.563-1.375-2.344-2.906-1.187-1.97 1.562-3.312-.406-.187 5.094.969.781v3.906l-1.97 1.969v3.125l.595 1.938v5.656l1.375 1.375v5.281l-3.313-.406-1.375.781-2.531 6.25-1 3.531-.313.688 3.532.719h2.906l3.219 2.093 1.312-1.594 5.781 1.75 2.282 1.313 5.156-.187 2.25-2.25 3.562 1.125h1.907l.03.03.626-1.468v-5.812l-.656-.97.343-.968 2.75-.156 1.282-1.125.156-.969-1.438-3.562.469-1.438 3.219-.312-.313-.813.813-1.937-.656-1.47.812-1.593 2.906-2.437-.343-2.563.5-4.187 1.125-1.938 3.656-1.187-.563-.032-1-3.531-2.531-.969-.781-4.281z" class="land departement53" style="fill:#0cf;stroke:#fff;stroke-opacity:.29045644" transform="translate(-27.84 -49.04)"/><path d="m222.558 143.26-4.562.812-7.438 4.313-8.375 3.312-6.656-3.719-16-2.344-3.719-1.937-5.781 1.469.344 2.156-1.125 1.125.156 1.594 3.719 3.719 2.25 1.28 1.625-2.093 1.28 1.625-1.624 2.094 1.469 2.406-.657.813 1.125 2.28-.625 2.563-1.625 2.594-2.593 1.594-1.438-1.125-1.437 1.281 1.593 1.469-1.281 2.406-3.062 1.125 3.718 4.688 3.688.312 2.844 1.844 3.937-1.188 2.906-3.375 4.032 1.125 3.53-2.437 2.126-.781 2.25 2.25 3.719-.657 3.218 1.781 4.032-1.28 3.687-2.75 2.438-2.75 1.625-.313.468 2.094 1.282-.313.156-1.469 3.719-.625 1.28.781 3.97-.874.656-1.907-.188-1.75-1.968-.781-.188-1.375 1.75-1.156.219-1.969-1.188-4.687-2.343-3.313 1.968-1.156v-.781l-1.968-.594z" class="land departement14" style="fill:#0cf;stroke:#fff;stroke-opacity:.29045644" transform="translate(-27.84 -49.04)"/><path d="m226.746 170.135-3.97.875-1.28-.782-3.72.625-.155 1.469-1.282.313-.468-2.094-1.625.312-2.438 2.75-3.687 2.75-4.032 1.281-3.218-1.78-3.72.655-2.25-2.25-2.124.782-3.531 2.437-4.032-1.125-2.906 3.375-3.937 1.188 2.156 1.406 1.937 1.938-.468 1.906.312 1.625-1.125 3.719-3.344 2.843 1.313 2.219 2.156 1.563 2.938-1.97 1.937 1.376 5.281-3.125 5.282.781 2.906-1.187.812-1.938 1.938-.187 1.75 1.562.781 4.281 2.531.969 1 3.531 3.313.188 5.281-4.875 5.281-.188 1.563 2.125.969 7.031 3.312 1.188 1.969 2.938h4.094l.187 1.343.188-1.937h.78l2.75 4.094 2.126.343v-4.625l-1.344-1.781-.406-1.562 2.937-1.75 2.938-.594 1.937-2.344-.375-7.219-4.125-3.5-.187-3.344-3.5-2.343 1.375-1.938-.813-2.937-2.718-.969-1.97-1.969-1.155-2.719-5.47-.187-1.562-1.969z" class="land departement61" style="fill:#0cf;stroke:#fff;stroke-opacity:.29045644" transform="translate(-27.84 -49.04)"/><path d="m267.058 171.572-1.187.969v3.125l-3.907 1.937v2.938l-1.156 1.375h-4.906l-2.313-.969-7.062 3.688h-2.719l-2.812 2.687.656.438.187 3.343 4.125 3.5.375 7.219-1.937 2.344-2.938.594-2.937 1.75.406 1.562 1.344 1.781v4.625l.406.063 2.719 1.937-1 1.25 1.937.969 3.094-.562h1.813l-.125.843-1.688.969 1.125.844h2.813l.968 2.25 1.688.969 1.25 2.812 4.344 1.125 2.687-.281 2.375-2.25 2.125.594.531-1.157-.125-1.25 1.125-.844 1.813 1.126 1.125-.844v-1.531l1.531-1 1.406.562 1.25 1.406 2.25-1.25h2.375l1.688-1.844 1-3.624 1.531-.282-.406-3.656 1.812-1.531-.562-1.125.219-.375-.532.062-.406-5.25-.406-.594-.375-2.53-4.094-.782-1.781-2.156-.563-4.313-2.343-.375-.407-2.156-2.718-1.937-1.375-3.344 1.375-2.344-1.375-1.562v-1.938l.78-2.156-1.562-1.563-.593-2.344z" class="land departement28" style="fill:#0cf;stroke:#fff;stroke-opacity:.29045644" transform="translate(-27.84 -49.04)"/><path d="m338.34 202.822-1.75 1.344-7.626-.375-3.5 1.75-1.375 2.937 1.563 1.75-2.344 2.75-1.781 2.125 3.531 3.344.969 3.125 2.562 2.719v3.531l-5.093 4.281 1.75 1.969-.375 2.906-2.75 1.969h-3.907l.594 2.156 2.531 3.5.594 3.125.594 2.156-1.156.344 2.468.563h1.844l.969-1.531h1.25l1.406 1.25-.281 1.562 1.281.844h1.813l2.53 1.687 1.126-.562 1.125.969 1.125-.282 1.937-1.25 1.844.563 1.25-.281v-3.5l.688.125.437 1.812 2.25 1.406v2.125l3.219.125 4.219 3.938 2.656.125-.156-1.25 1.125-1.688 1 1.25-.844 1.406.406 1.282 1.531-1h1.844l-.156 2.812 1.687 1.125 1.282-.562 3.125-2.125-.188-.406-1.844-1.125-.125-1.97 1.969-.968.844-1.125-.563-.969v-2.25l1.532-2.25 2.25-4.781.406-2.094 1.406-.562.156-.406-.718-.563v-1.687l2.25-1.688.562-2.812-.969-1.657h-1.562l-.406-.437v-2.375l1.968-1.406-.156-1.407-.281-1.406-1 2.156-1.375-.187-1.156-2.156-3.907 1.968-7.812-.406-.969-2.156-2.156-2.906-.375-3.532-3.125-3.719-1.969 1.376-3.531-2.72.594-5.28-5.063-5.282h-2.344z" class="land departement89" style="fill:red;stroke:#fff;stroke-opacity:.29045644" transform="translate(-27.84 -49.04)"/><path d="m443.402 220.978-3.688.594-.593 1.938-1.97 1.375-1.343-1.563-.969.594.75 1.156-1.937 1.188.594 1.562-2.157.781v2.531h-2.75l-.187 1.563-2.719.594.188 2.344 1.75.187-.97 1.156-.593 3.906h-1.75l-2.937 1.188-3.125-1.187-2.72 1.187v1.969l2.126.375 1.562 3.125.219 1.562-2.531 2.938-1.188.375-.781.969 2.156 1 .375 3.125 1.75.187.219 3.906.781.781.094.625 1.5.407 1.688 1.406h2.53l.97-.969 1.718.063 1.782.062 3.937-3.219h1.125l1.25-.968 4.063.125 3.093-2.531 2.25-.407.844-2.094 1.813-.562 1.812-3.094 2.531-1.969 2.657-.406 1.968 1.406 3.657-.437v-1.969l1.468-.844 1.157-1.593h2.25l1.25-1.313.468-3.125v-1.937l-.843-2.969v-2.5l1.53-1.125 1.813-.937-.187-.375-6.25-3.313-1.75-1.969-1.75-1.156-1.563.781-.218 1.156-1.563.97h-.969l-2.937-3.313h-4.094l-1.75 1.375-1.562.187-2.532-1.937.188-2.156z" class="land departement70" style="fill:red;stroke:#fff;stroke-opacity:.29045644" transform="translate(-27.84 -49.04)"/><path d="m261.84 106.978-1.282 1.563-8.375 6.437-14.844 3.719-9.781 3.5-8 4.313-4.687 7.03-.97 5.47 3.907 2.937 5.656 1.156-.906.156.031.157 4.375-.563 2.25-2.406 1.688-.406 1.937 3.375 2.688-.281 1.125 1.937 4.75-.281 4.781 3.375-3.094.969 2.25 1.687h1.407l1.25 2.688h2.25l.687-1.688-1.687-1.125 4.78-1.406 5.032-.563 1.281-3.656 2.375-2.094 4.5-.125 5.188 2.656 3.094.344.53-1.625 1.376-2.562.781-1.344h-1.969v-3.344l-1.156-1.937.781-3.906.782-1.97h-1.563l.781-1.937 1.938-2.343-1.938-3.532-.593-3.5-8.594-8.406-.969-1.937-2.156.187z" class="land departement76" style="fill:#0cf;stroke:#fff;stroke-opacity:.29045644" transform="translate(-27.84 -49.04)"/><path d="m230.902 140.04-1.688.407-2.25 2.406-4.375.563.907 7.25 1.968.594v.78l-1.968 1.157 2.343 3.313 1.188 4.687-.219 1.969-1.75 1.156.188 1.375 1.968.781.188 1.75-1.563 4.5 1.563 1.969 5.469.188 1.156 2.718 1.969 1.969 2.718.969.813 2.937-1.375 1.938 2.844 1.906 2.812-2.687h2.719l7.062-3.688 2.313.969h4.906l1.156-1.375v-2.938l3.907-1.937v-3.125l1.062-.875-.094-.875 1-1-1.75-.375v-1.563l-1-1.562.782-.969 5.468-1.562 1.375-2.344 1.188-4.313 1.437-1.781.313-2.312 1.75.968 1.375-.375-1-1.562-.563-4.5-1.75-1.563.032-.125-3.094-.344-5.188-2.656-4.5.125-2.375 2.094-1.281 3.656-5.031.563-4.781 1.406 1.687 1.125-.687 1.688h-2.25l-1.25-2.688h-1.407l-2.25-1.687 3.094-.97-4.781-3.374-4.75.281-1.125-1.937-2.688.28z" class="land departement27" style="fill:#0cf;stroke:#fff;stroke-opacity:.29045644" transform="translate(-27.84 -49.04)"/><path d="m232.09 242.353.374.875-5.656 1.563-1.344 1.969-2.375-1.563 1.188 3.906h-2.156l-3.907-2.75-1.937 3.906.969 1.188v1.156l-1.97 2.563.22 4.281-3.125 3.719-2.22 8h.25l.782 3.125 3.719.781v2.344l4.687 1.375v3.719l-.187 2.343h5.844l5.093-1.187-.406-2.156 1.563-.97 1.562 2.157 1.375.594 1.156 4.687 3.344 3.5.375 2.75 3.031 3 1.719-.156 2.125-1.969 1.531-7.969.969-2.812.719-3.5 3.094-1.125 2.093.406 1.407 1.281 1.53-2.53 1.407-1.282v-1.531l1.813-.125.437-1.844-1.562-2.094.25-.875-1.094-.937-2.938-4.344h-3.781l-1.125-1.687v-7.032l-1.531-4.062-.281-5.031-1.97-.157-2.25-1.687h-.562l-1.968 1.406-1.25-.844-.282-1.937 1.407-.719.125-.687-.813-.72z" class="land departement37" style="fill:#0cf;stroke:#fff;stroke-opacity:.29045644" transform="translate(-27.84 -49.04)"/><path d="m293.62 205.947-2.53 2.344-5.72.5-.218.375.562 1.125-1.812 1.531.406 3.656-1.531.281-1 3.626-1.688 1.843h-2.375l-2.25 1.25-1.25-1.406-1.406-.562-1.531 1v1.53l-1.125.845-1.813-1.125-1.125.843.125 1.25-.531 1.156.406.126h1.657l-.125 1.125-1.125 1.937v1h1.125l.968 1.125.282 1.125-2.22 2.219 1.095 2.687v1.25l1.843 1.25 2.532.281 1.656 1.407.437 2.406 1.813 2.094 1.969-.563.843-1.812 3.094.406.688.719h1.968l.969-1.125 7.156.281 1.688 2.5 1.969.844 1.687 1.562 2.094-.281.562-.719h1.25l1.563 1.969 3.219.156.843 1.094 2.25 3.094.969.844 1.25-.125.156-2.813.563-.281.844.125 1.406 1.844.969.406 2-.813-.313-.344-.187-1.968 3.906-1.156-.594-2.157-.594-3.125-2.531-3.5-.594-2.156h3.907l2.75-1.969.375-2.906-1.75-1.969 5.093-4.281v-3.531l-2.562-2.719-.969-3.125-3.531-3.344-4.875 2.75-.375-1.562-2.156-.188-.594 1.563-1.938.375-5.281-.188-2.156 1.375-1.75-1.562 3.125-2.156-.188-3.313-2.343-1.187-1.97-2.938-5.25-.375z" class="land departement45" style="fill:#0cf;stroke:#fff;stroke-opacity:.29045644" transform="translate(-27.84 -49.04)"/><path d="m274.62 266.916-1.25.437-2.53-.156-2.938 1-.688 1.531-.281-.562-3.375.156-1.687 1.406-1.97.281-.28.97 1.562 2.093-.437 1.844-1.813.125v1.531l-1.406 1.281-1.531 2.531-1.407-1.28-2.093-.407-3.094 1.125-.719 3.5-.969 2.813-1.531 7.968-2.125 1.969-1.719.156.5.5v3.719l-.781 2.344 3.719 2.937 1.937 1.938 3.125.406 1.188 4.094 2.125 1.156-.375 2.938-1.563.28.563.126 4.906.375 1.75-1.75 3.125 3.125 3.906-4.5 1.75 1.187 2.344-.219.781.407 3.532.187 1.156-3.125 9.781 1.188 3.719.969 1.687-.188.094-1.562 1.969-1.97-.406-1.687-1.125-2.219.406-.843.156-2.531.688-.844.156-.563-1.688-1.531-.562-1.969-2.656-1.406v-1.687l1.937-1.125v-1.125l-1.812-1.532-.563-.969 1.406-.718-.125-1.25 2.219-1.844-.125-.812h-1.812l-1.125-1.282v-.687l.968-1.688v-1.25l-2.25-2.969.438-2.656-1.281-.969-2.657.125-2.093.844-2.813-.406-1.406-1.125-.281-.844 2.25-1.844.156-2.218-2.969-1.688z" class="land departement36" style="fill:#0cf;stroke:#fff;stroke-opacity:.29045644" transform="translate(-27.84 -49.04)"/><path d="m242.402 217.728-1.313 1.688-1.562 2.719 1.937 1.78-.187 4.095-.781 2.718h-1.97v3.719l-2.718 3.531-2.937 1.156-1.375 1.75.593 1.47 9.469.312.813.719-.125.687-1.407.719.282 1.937 1.25.844 1.968-1.406h.563l2.25 1.687 1.969.156.28 5.032 1.532 4.062v7.031l1.125 1.688h3.781l2.938 4.344 1.094.937.03-.094 1.97-.28 1.687-1.407 3.375-.156.281.562.688-1.531 2.937-1 2.532.156 1.25-.437 1.687 1.562 2.969 1.688 2.5-.156-.125-2.532 1.125-1.25 1.125-.125.969 1.094 3.937-.406 2.5-1.406-.281-.97-.688-.843.125-1.844 1.844-3.344 2.375-1v-2.093l.563-1.25-1.532-.563-1-2.125-2.531-.687-.125-.844 2.531-2.094 2.844-1.406-1.594-2.375-7.156-.281-.969 1.125h-1.968l-.688-.719-3.094-.406-.843 1.812-1.97.563-1.812-2.094-.437-2.406-1.656-1.406-2.532-.282-1.843-1.25v-1.25l-1.094-2.687 2.219-2.219-.282-1.125-.968-1.125h-1.125v-1l1.125-1.937.125-1.125h-1.657l-2.531-.72-2.375 2.25-2.687.282-4.344-1.125-1.25-2.812-1.688-.97-.968-2.25h-2.813l-1.125-.843 1.688-.969.125-.844h-1.813l-3.094.563z" class="land departement41" style="fill:#0cf;stroke:#fff;stroke-opacity:.29045644" transform="translate(-27.84 -49.04)"/><path d="m295.433 246.322-2.844 1.406-2.531 2.094.125.844 2.531.687 1 2.125 1.532.563-.563 1.25v2.094l-2.375 1-1.844 3.343-.125 1.844.688.844.281.969-2.5 1.406-3.937.406-.97-1.094-1.124.125-1.125 1.25.125 2.531-2.5.157-.156 2.219-2.25 1.843.28.844 1.407 1.125 2.813.406 2.093-.844 2.657-.125 1.28.97-.437 2.656 2.25 2.968v1.25l-.968 1.688v.687l1.125 1.281h1.812l.125.813-2.219 1.844.125 1.25-1.406.719.563.968 1.812 1.531v1.125l-1.937 1.125v1.688l2.656 1.406.562 1.969 1.688 1.531-.156.563-.688.844-.156 2.53-.406.844 1.125 2.22.406 1.687-1.969 1.969-.094 1.562 4.594-.562.938-2 2.53-2.907 4.876-1 2.562.781 2.719-2.125-.187-1.562-.97-.781v-3.125l5.25-5.281 1.97 2.156 1.75-1.781 1.562-.188 2.719-3.5 4.5.375.062 1.063 1.5-4.782-.968-1.75.187-2.531.594-5.094-2.156-2.125.406-4.687-1.969-4.125-.187-2.719-3.532-2.75-.562-2.344 1.75-2.531v-3.719l-2.031-2.375-2 .813-.97-.406-1.405-1.844-.844-.125-.563.281-.156 2.813-1.25.125-.969-.844-2.25-3.094-.843-1.094-3.22-.156-1.562-1.969h-1.25l-.562.719-2.094.281-1.687-1.562-1.97-.844z" class="land departement18" style="fill:#0cf;stroke:#fff;stroke-opacity:.29045644" transform="translate(-27.84 -49.04)"/><path d="m383.277 222.728-.406 2.531-2.532 1.376-6.437.187.281 1.406.156 1.406-1.968 1.407v2.375l.406.437h1.562l.969 1.656-.562 2.813-2.25 1.688v1.687l.718.563-.156.406-1.406.562-.406 2.094-2.25 4.781-1.532 2.25v2.25l.563.969-.844 1.125-1.969.969.125 1.969 1.844 1.125.688 1.53-.282 2.126-.406 1.531.969 1.688 2.812.562 1.25 1.969v.844l-.843.28v2.032l.156.063 3.781 3.906 3.938-.125 3.5 2.656 2.53 1.844.126 2.375 2.656.562 2.25 1.813 5.906-2.094 4.063-1.281 1.812-.281.563-.813 1.969.125 1.53.969 2.25-.563 2.25-1.531 1.688.188.032-.188 1.343-.781-.187-1-.375-1.156.969-1.563 3.312-1.562v-1.563l1.188-1.562 1.156-1.563-.375-1.375.562-2.156.407-3.125h.78l-.187-1.156-.781-.782-.219-3.906-1.75-.187-.375-3.125-2.156-1 .781-.97 1.188-.374 2.531-2.938-.219-1.562-1.562-3.125-2.313-.406-.812 1.968-4.281.969-.407-.969-3.125-3.906-1.75.969-2.343-.188-.782-1.562-3.125.187-.187-3.312-1.75-1.188 2.531-2.719-4.5-6.062-3.5-3.719-3.125-1.75z" class="land departement21" style="fill:red;stroke:#fff;stroke-opacity:.29045644" transform="translate(-27.84 -49.04)"/><path d="m326.652 249.26-.969 1.53h-1.844l-2.468-.562-2.75.813.187 1.969 2.344 2.718v3.719l-1.75 2.531.562 2.344 3.532 2.75.187 2.719 1.969 4.125-.406 4.687 2.156 2.125-.594 5.094-.187 2.531.968 1.75-1.5 4.781.125 1.47 3.344 1.562 2.344 2.562 2.125-1.187 1.969-1.156.406 1.75h2.906l.781-1.563 1.75.781.594 2.531 1.563-.375 3.718-5.093 1.938 1.375.312.594 3.063-1.907 1.25.156.969 2.375 1.843-.28 1.407-1.407h1.812l1.406-1.812 1.407-.282.28-1 3.063.156.157-.718-1.407-1.25v-1.25l1.969-1.125v-.844l-1.844-1.125-.281-2.094.156-1.969-1.25-.843 1.094-1.531 1-.563.688-1.687-.97-.563-1.124-1.687 1.406-1.97 2.375-1.406h2.938v-2.218l.843-.281v-.844l-1.25-1.969-2.812-.562-.969-1.688.406-1.531.282-2.125-.5-1.125-3.125 2.125-1.282.562-1.687-1.125.156-2.812h-1.844l-1.531 1-.406-1.281.844-1.407-1-1.25-1.125 1.688.156 1.25-2.656-.125-4.22-3.938-3.218-.125v-2.125l-2.25-1.406-.437-1.812-.688-.125v3.5l-1.25.28-1.844-.562-1.937 1.25-1.125.281-1.125-.968-1.125.562-2.531-1.687h-1.813l-1.281-.844.281-1.562-1.406-1.25z" class="land departement58" style="fill:red;stroke:#fff;stroke-opacity:.29045644" transform="translate(-27.84 -49.04)"/><path d="M371.37 273.322v.188h-2.937l-2.375 1.406-1.406 1.969 1.125 1.687.969.563-.688 1.687-1 .563-1.094 1.53 1.25.844-.156 1.97.281 2.093 1.844 1.125v.844l-1.969 1.125v1.25l1.407 1.25-.157.719-3.062-.157-.281 1-1.407.281-1.406 1.813h-1.812l-1.407 1.406-1.843.281-.97-2.375-1.25-.156-3.062 1.906 3.625 6.813v2.938l.969 1.187h3.313l1.156 1.563h3.125l1.375 1.937-.188 7.625-4.093 3.125-.094.219.281-.031.594.187.187 3.125 2.938.594.375 1.375h1.562l2.344-1.375 6.25.969 1.188 1.187 1.562-1.562h2.156l1.157-6.25.78-.594h1.938l2.375 1.562 1.75-1.562 1.157 1.562 1.78-1.75 2.126-.187 1 3.125.75 3.906 1.375.188 1.187-2.75 3.688-14.438 1.375-2.531 2.156-.219 2.156 1.781 1.563-.406 1.937-1.375 1.969.406 1.156 2.531 1.125.438 5.125-.625 1.969-1.562-.781-1.188-2.344-.781-.219-2.719 1.969-1.375.781-3.312-1.75-3.125-1.187-1.563.594-.594v-1.937l-1.563-1-.406-1.563 4.5-.562.406-1.563h-1.375l-1.156-1.375h-2.156l-1.782-2.937-1.562-.188.187-2.344-1.687-.187-2.25 1.531-2.25.563-1.531-.969-1.97-.125-.562.813-1.812.28-4.063 1.282-5.906 2.094-2.25-1.813-2.656-.562-.125-2.375-2.531-1.844-3.5-2.656-3.938.125-3.781-3.906z" class="land departement71" style="fill:red;stroke:#fff;stroke-opacity:.29045644" transform="translate(-27.84 -49.04)"/><path d="m421.058 263.01.094.53h-.781l-.407 3.126-.562 2.156.375 1.375-1.156 1.563-1.188 1.562v1.563l-3.312 1.562-.97 1.563.376 1.156.187 1-1.343.781-.22 2.531 1.563.188 1.782 2.937h2.156l1.156 1.375h1.375l-.406 1.563-4.5.562.406 1.563 1.563 1v1.937l-.594.594 1.187 1.563 1.75 3.125-.781 3.312-1.969 1.375.219 2.719 2.344.781.781 1.188-1.969 1.562-5.125.625 2.407.938 3.906 5.468 2.531 1.156v2.75l2.938-.406 3.718-4.094 3.125 1.563v2.344h5.657l8.125-8.938-.344-.187.375-4.094 2.937-3.5-1.968-.781.187-1.188-2.375-.219-.156-1.406 1.531-1.531-.406-1.531-.844-1.969 3.5-1.125 1.281-1.812.282-2.25-2.813-2.688-1.969-.531-4.343-1.406v-3.938l-.282-2.937-3.5.28-5.468-1.843.843-1.937 1.25-2.97.438-1.937-1.406-1.844-2.532-1.687-.281-2.094.031-1.187-1.718-.063-.97.969h-2.53l-1.688-1.406z" class="land departement39" style="fill:red;stroke:#fff;stroke-opacity:.29045644" transform="translate(-27.84 -49.04)"/><path d="m357.277 144.79-2.344 1 .406 1.938h-4.125l-3.687 2.75v5.25l2.719 1.781.78 1.75-4.5.376-.562 1.78 1.75 1.157-.781 1.188-1.75.78.375 1.345h2.531l1 1.375-1.75 1.187-1.562 4.094-2.938 1.375-1 2.125-.968 1.187.218 1.156-1.562 1-.406 2.72 1.562.968.781 2.938-.968 1.75.593 1.375 2.907-.188v.969l.843-.188 3.375 3.563 4.75-.781 5.563-3.782h3.344l3.375-2.375 3.968-2.187 2.969.219.406 3.968 3.563 5.344h3.969l5.562-1.187 3.969 1.375 4.156-2.97.594-4.937 4.594-.781-.094-3.094-3.719-2.937-.406-1.563 1.375-2.344-1.188-.968 1.188-2.938 2.156-.969 1.563-4.874-3.125.187 1.75-1.937-1.375-4.313-1.344-2.937 1.75-1.563-1-.187-.25-1.344c-.04.006-.281.031-.281.031l-1.782-1.594-2 2h-.593l-.782-1-4.75-.187-.812 1.187h-1.375l-1.188-2.594h-2.593l-.594.594-2.563-.187-3.187-2.375-2.188-.594-.781-1.187-4.156-2.594-4.75-.125.062 1.781-1.375.375z" class="land departement51" style="fill:red;stroke:#fff;stroke-opacity:.29045644" transform="translate(-27.84 -49.04)"/><path d="m277.12 125.697-1.28 1.531-.782 1.938h1.563l-.782 1.969-.781 3.906 1.156 1.937v3.344h1.969l-.781 1.344-1.375 2.562-.563 1.75 1.75 1.563.563 4.5 1 1.562-1.375.375-1.75-.969-.313 2.313.125-.156.75 1.75 1.188 1.937 5.281.406 3.719-.406 2.531-1.937 3.125 1.937 1.563 1.188 2.343-.594 2.125-.969 4.125 2.156 4.282 2.532 1.375 1.375 2.343-1.563 1.938 1.156 1.187.97 1.75-.188 1.188-1.563 2.719 1.563 3.343-1.375 1.938.594 1.937-1.563 1.188-.594.375.281.406-2.656-1.406-1.594-2.375-1.593-1 1.594-.594.187-.187-2.969 1.78-.406-.405-2.75-2.375-.406 1.187-2 3.375-.781 1.188-4.75 1.78-.813-2.374-1.781.812-1.781.375-5.938-.812-4.594-4.125.406-2.781-.374-5.157 1.375-4.375 4.156-3.562-1.188-3.563-.375-2.781-2.781-4.969-1.406-6.718.594-1.782-1.375h-3.593l-2.563 1-1.187-.813v-2.156l-.407-.594z" class="land departement60" style="fill:red;stroke:#fff;stroke-opacity:.29045644" transform="translate(-27.84 -49.04)"/><path d="m289.152 54.135-10.813 2.062-8.593 6.625v26.375l-.063.781 3.031.719.969 2.156 2.344-.593 1.375-1.75 1.75.593 3.719 2.907 1.375-.563.968 2.344 3.5 1.562v1.938l2.563.969 2.531-.97 4.875-.593 1.188 1 2.343-1 1.157 1.969-2.907 1.937v2.75l.969.969.781-.187.563-1.563 1.781-1.187 1.75 1.374 4.094 1.376h1.75v-1.97l2.562 1.782.188 1.563-1.188 1.75 2.157-1.188 1.78-.781.75 1.375v1.375l2.938-1.563h4.688l.187.188 1.157-2.219-.594-1-1.781-.375h-1.97l-1.187-.406 1.969-1.188 1.781.188 1.782-.188.218-3.187 1.188-.781.187-1.782-2.187-1.406-2.563-.187-.593-.407 1.593-1.187.375-1.188-1.375-.968-2-2.407.219-1.187 2.563-1.188.406-1.375-1.781-.812-1-2.563-3.563-.406-3.562-.969-.407-3.968 2.563-1.594-.969-2h-2l-1.375 2.187-6.156-.375-4.969-1.218-2.75-2.97v-2.374l2.156-1-1.781-1.375-4.344-.188-2.593-6.562z" class="land departement62" style="fill:red;stroke:#fff;stroke-opacity:.29045644" transform="translate(-27.84 -49.04)"/><path d="m305.683 49.54-6.25 2.938-9.75 1.563-.531.094 3.719 5.906 2.593 6.562 4.344.188 1.781 1.375-2.156 1v2.375l2.75 2.969 4.969 1.218 6.156.375 1.375-2.187h2l.969 2-2.563 1.594.407 3.968 3.562.969 3.563.406 1 2.563 1.78.812-.405 1.375-2.563 1.188-.219 1.187 2 2.407 1.375.968-.375 1.188-1.593 1.187.593.407 2.563.187 2.187 1.406-.187 1.782-1.188.78-.218 3.188-1.782.188-1.781-.188-1.969 1.188 1.188.406h1.969l1.78.375.595 1-1.157 2.219 1.563 1.562 1.562.407 1.563-1h2.156l.594 1.187.781-.187 2.344-1.376 2.344 1.376 3.125-2.157h1.375l1.562 1.375 3.125-2.156 1.344.188 1.187.968 4.313.407.375 1.75 2.156-1.938h1.156l.782 2.531 3.718.969 1.063-.719h-.313l-.187-1.937 3.906-2.344-.594-3.719-3.718-.968.968-1v-2.72l2.938-2.156-.781-1.562-6.25-4.875-10.938.594-1.156 1.937h-1.375l.187-6.843-3.125-3.688-2.343.375-1.375-1.562-3.907 1.75-1.343-1.344-2.75-.406-.782-2.532-.187-7.812-1.75-.781-.219-1.188h-1.156l-.406-2.344-2.532.219-4.875 1.563-2.343 2.906h-2.344l-1.563-1.938-.593-2.156-1.938-2.156h-2.75l-1.156-2.125v-3.344l1.344-2.125-.782-2.937z" class="land departement59" style="fill:red;stroke:#fff;stroke-opacity:.29045644" transform="translate(-27.84 -49.04)"/><path d="m348.308 107.697-3.125 2.156-1.562-1.375h-1.375l-3.125 2.157-2.344-1.376-2.344 1.376-.781.187-.594-1.187h-2.156l-1.563 1h-.062l.469 2.75-2.563 2.78v2.563l-1.781 2 .406 2.375.969 3.969 1.187 6.75-.375 5.938-.812 1.78 2.375 1.782-1.781.813-1.188 4.75-3.375.78-1.187 2 2.375.407.406 2.75-1.781.406.187 2.969.594-.187 1-1.594 2.375 1.594 1.406 1.593-.406 2.656 1.781 1.282.594 4.312 5.25 5.063 1.75.594 1 2.343 3.281.688.406-.5 1-2.125 2.938-1.375 1.562-4.094 1.75-1.187-1-1.375h-2.531l-.375-1.344 1.75-.781.781-1.188-1.75-1.156.563-1.781 4.5-.375-.781-1.75-2.72-1.782v-5.25l3.688-2.75h4.125l-.406-1.937 2.344-1 3.312 2.156 1.375-.375-.187-6.656.594-2.344.78-2.719-2.562-1.375.594-1.562 3.719-.781v-2.532l2.937-1.562.782-2.344-.97-1.562.188-2.938 1.75-1.562-1.75-3.313.532-3.469h-3.97l-1.062.719-3.718-.969-.782-2.531h-1.156l-2.156 1.938-.375-1.75-4.313-.407-1.187-.968z" class="land departement02" style="fill:red;stroke:#fff;stroke-opacity:.29045644" transform="translate(-27.84 -49.04)"/><path d="m269.683 89.978-.531 6.438 4.312 3.906v1.969l-5.281-3.125-6.344 7.812 1.688.719 2.156-.187.969 1.937 8.594 8.406.593 3.5 1.938 3.532-.656.812h2.468l.407.594v2.156l1.187.813 2.563-1h3.593l1.782 1.375 6.718-.594 4.969 1.406 2.781 2.781 3.563.375 3.562 1.188 4.375-4.156 5.157-1.375 2.78.375 4.126-.407-.375-2.156-.969-3.969-.406-2.375 1.781-2v-2.562l2.563-2.781-.47-2.75-1.5-.407-1.75-1.75h-4.687l-2.937 1.563v-1.375l-.75-1.375-1.781.781-2.157 1.188 1.188-1.75-.188-1.563-2.562-1.781v1.969h-1.75l-4.094-1.376-1.75-1.374-1.781 1.187-.563 1.563-.781.187-.969-.969v-2.75l2.907-1.937-1.157-1.969-2.343 1-1.188-1-4.875.594-2.531.969-2.563-.97v-1.937l-3.5-1.562-.968-2.344-1.375.563-3.72-2.907-1.75-.593-1.374 1.75-2.344.593-.969-2.156z" class="land departement80" style="fill:red;stroke:#fff;stroke-opacity:.29045644" transform="translate(-27.84 -49.04)"/><path d="m387.527 101.322-1.969 2.906-1.75 1.782v4.093l-2.344 1.563-4.281 1.375-2.344.969-2.75-2.157h-3.718l-.532 3.469 1.75 3.313-1.75 1.562-.187 2.938.969 1.562-.782 2.344-2.937 1.562v2.531l-3.719.782-.594 1.562 2.563 1.375-.781 2.719-.594 2.344.125 4.875 4.75.125 4.156 2.594.781 1.187 2.188.594 3.187 2.375 2.563.187.594-.594h2.593l1.188 2.594h1.375l.812-1.187 4.75.187.782 1h.593l2-2 1.782 1.594s.24-.025.28-.031l-.124-.813 2.344-1.156 1.156-1.187-.75-1.938-.219-1.375 2.156-1.75.782-3.906-2.344-2.938.781-1.375 1.969-3.687.562.781h2.938l1.375 1.344 1.75-1.156 1.375-2.25-1.406-.22-.782-3.905-1.562-1.188-5.469-.594-.969-2.531-1.781-1.156-6.25-.781-.375-4.5.781-.782v-1.75l-3.125-1.968.594-2.157.781-1.937-1.375-1.188 2.157-1.937v-3.531l-.782-.563z" class="land departement08" style="fill:red;stroke:#fff;stroke-opacity:.29045644" transform="translate(-27.84 -49.04)"/><path d="m369.214 184.166-3.968 2.187-3.375 2.375h-3.344l-5.563 3.781-4.75.782-3.375-3.563-.843.188v.594l-2.72 1.156-.187 2.344-1.375 1.78-.781 3.907-.437 3.281 1.218 1h2.344l5.063 5.281-.594 5.282 3.531 2.719 1.969-1.375 3.125 3.718.375 3.531 2.156 2.907.969 2.156 7.812.406 3.907-1.969 1.156 2.157 1.375.187 1-2.156 6.437-.187 2.532-1.375.406-2.532h5.656l.781.438-.656-2.5-1.594-1 2.188-1.969 3.375-.219 1.187-1.781-.218-7.125-.782-4.156-3.375-1.188-3.562-4.969.187-2.968 1.032-2.156-1.813-.625-5.562 1.187h-3.97l-3.562-5.344-.406-3.969z" class="land departement10" style="fill:red;stroke:#fff;stroke-opacity:.29045644" transform="translate(-27.84 -49.04)"/><path d="m398.996 185.197-4.594.781-.594 4.938-4.156 2.969-2.156-.75-1.032 2.156-.187 2.969 3.562 4.968 3.375 1.188.782 4.156.218 7.125-1.187 1.781-3.375.219-2.188 1.969 1.594 1 .656 2.5 2.344 1.312 3.5 3.719 4.5 6.063-2.531 2.718 1.75 1.188.187 3.312 3.125-.187.782 1.562 2.343.188 1.75-.969 3.125 3.906.407.969 4.28-.969.813-1.969.188.032v-1.969l2.719-1.187 3.125 1.187 2.937-1.187h1.75l.594-3.907.969-1.156-1.75-.187-.188-2.344 2.719-.594.187-1.562h2.75v-2.532l2.157-.781-.594-1.562.594-.375-1.782-1.407-2.125.781v-4.093l-5.468-2.719 1.156-5.281 1.75-1.188-.563-1.75-2.562-.375-.563-2.562h-2.343l-2.75-3.688-3.125-.219-1.344-1.937 1.75-1.75-4.125-4.5-1.75-.594-4.688-2.344-2.531-2.718-4.094-.594z" class="land departement52" style="fill:red;stroke:#fff;stroke-opacity:.29045644" transform="translate(-27.84 -49.04)"/><path d="m500.62 157.76-3.718 1.03-1.719 3v2.938l-1.562 1.375h-1.375l-2.532-1.781-1.968 1.375h-2.344l-1.938-1.937-3.718-.594-2.157-.969-.781-2.937-1.75 1.937-.969 4.5-2.562.781v2.531l2.562 1.188 1.938 1.375-.781 1.75 1.78 1.156 3.126-2.344 5.437 3.126-2.312 4.312.187 1.375 1.563 1.563-1.188 4.093-3.906 3.906-2.156-.187 1.375 1.344-.781 3.531.78 5.281 3.72.969-.313.719 2.938-.156 1.718 2.093 1.532 1.906 3.843-.187 1.719 4.969 3 1.312-.031-.625 5.094-9.969-.594-5.656 2.344-7.625.593-6.656 5.063-3.687v-2.344l1.969-2.563h1.562l1.75-1.75-.375-3.312 1.75-4.688 2.719-.594-2.719-2.156-4.875-.562-4.312-2.156-2.938 1.75-1.562-1.75z" class="land departement67" style="fill:red;stroke:#fff;stroke-opacity:.29045644" transform="translate(-27.84 -49.04)"/><path d="m421.496 133.916-2.344 2.156-3.313.188-1.156 1.187h-.25l-.125 2.344 1.156 1.906-.406 1.156-.375 1.344.188.75.968-.75.938-1.719 1.937-.187 3.25-.969 1.719 1.344.75 1.531.594 1.719v1.719l.937.78v1.313l-.937 1.156-.188 2.5.75 1.157.188 1.531.187 2.469 1.157.969 1.718.75-.75 1.53 2.094 1.938-1.906 2.094.375 1.344 1.906.937v.969h-2.281l-.969 1.344.188.969 1.53 1.53-1.312 3.626-1.531 3.437.75 2.125v3.438l.781 1.719h1.125l.594.968h-1.719l-1.531.75v1.156l1.906 1.72v2.687l1.907-.594 2.875.188.187 3.062 1.156.406-1.343.938-.188.969 2.094.375 1.344 1.718 6.312-.375 1.344-2.5h2.875l1.156-.937 1.906 1.156 1.719-.594 2.5.188 2.094-.75 2.094-1.531 1.156 1.156.187-2.688 1.532-.594.78 2.5 2.282.188 2.313.594.937.187 3.281-1.531 1.719-1.156 1.531-1.906 3.063-1.157 2-.437-1.125-1.094 2.156.188.406-.407-2.312-.75-3.25-2.281-2.875-2.125h-3.438l-3.625-2.094-2.875-.187v-.781l-4.406-2.657-4.969-2.125h-2.5l-.937-2.656-3.844-4.812h-3.812l-1.532-2.094h-3.062l.187-3.063-4.031-2.5.188-2.469h2.125v-2.124l.75-1.532-1.72-1.719 1.532-2.656-1.156-3.062-.938-.781-2.5-5.344.969-1.531s-.08-1.258-.156-2.938h-2.625l-3.531-3.906z" class="land departement54" style="fill:red;stroke:#fff;stroke-opacity:.29045644" transform="translate(-27.84 -49.04)"/><path d="m327.402 161.978-1.188.594-1.937 1.563-1.938-.594-3.343 1.375-2.72-1.563-1.187 1.563-1.75.187-1.187-.969-1.938-1.156-2.343 1.563-.094-.094-.844 5.406 1.156 6.875v4.594l-1.531 3.844.375 2.656-1.719 1.344.938 5.187-.75 1.125-.563 5.188 1.313 1.719-4.375 2.875v3.937l1.219 1.813 2.343 1.187.188 3.313-3.125 2.156 1.75 1.562 2.156-1.375 5.281.188 1.938-.375.594-1.563 2.156.188.375 1.562 4.875-2.75 1.781-2.125 2.344-2.75-1.563-1.75 1.375-2.937 3.5-1.75 7.625.375 1.75-1.344.157.156.437-3.281.781-3.906 1.375-1.781.188-2.344 2.719-1.156v-1.563l-2.907.188-.593-1.375.968-1.75-.781-2.938-1.562-.969.406-2.719 1.562-1-.218-1.156.562-.687-3.281-.688-1-2.344-1.75-.593-5.25-5.063-.594-4.312z" class="land departement77" style="fill:#fc0;stroke:#fff;stroke-opacity:.29045644" transform="translate(-27.84 -49.04)"/><path d="m485.496 202.01-2.938.156-1.844 4.156-2.343 4.688.593 2.937-1.937 4.5-3.344 2.906-.187 7.625-2.438 2.094.094.063.781 1.562 3.125.188 3.531 2.75.563 1.343-.188 2.344-.968 1.781.375 2.344 2.75-.406.593 2.156.969 4.156 2.313-.375-.407 2.125 1.375 1.188 7.219-.188 3.719-2.937.187-4.313 1.969-2.531-2.562-2.937-1.344-3.125 1.562-2.125v-4.907l.969-2.344v-3.906l1.75-2.531-1.937-2.719-.188-5.625-3-1.312-1.719-4.969-3.843.188-1.532-1.907z" class="land departement68" style="fill:red;stroke:#fff;stroke-opacity:.29045644" transform="translate(-27.84 -49.04)"/><path d="m410.027 132.01-1.375 2.25-1.75 1.156-1.375-1.344h-2.938l-.562-.781-1.969 3.687-.781 1.375 2.344 2.938-.782 3.906-2.156 1.75.219 1.375.75 1.938-1.156 1.187-2.344 1.156.375 2.156 1 .188-1.75 1.563 1.344 2.937 1.375 4.313-1.75 1.937 3.125-.187-1.563 4.875-2.156.968-1.188 2.938 1.188.969-1.375 2.343.406 1.563 3.719 2.937.187 6.844 4.094.594 2.531 2.719 4.688 2.343 1.75.594 4.125 4.5-.438.438 3.438-.438v-1.719l3.844-.781v-1.312h.937v1.125l3.063-.938 1.187-1.594-.219.063v-2.688l-1.906-1.719v-1.156l1.531-.75h1.719l-.594-.969h-1.125l-.781-1.718v-3.438l-.75-2.125 1.531-3.437 1.313-3.625-1.531-1.531-.188-.97.969-1.343h2.281v-.969l-1.906-.937-.375-1.344 1.906-2.094-2.094-1.937.75-1.531-1.718-.75-1.157-.97-.187-2.468-.188-1.531-.75-1.156.188-2.5.937-1.157v-1.312l-.937-.781v-1.72l-.594-1.718-.75-1.531-1.719-1.344-3.25.969-1.937.187-.938 1.719-.968.75-.188-.75.375-1.344.406-1.156-1.156-1.906.125-2.344h-.937l-.782-3.719-1.562-1.562z" class="land departement55" style="fill:red;stroke:#fff;stroke-opacity:.29045644" transform="translate(-27.84 -49.04)"/><path d="m442.996 135.885-2.938.187-2.344 1.969-.593.969h-3.313l-1.156-1.188h-.5c.077 1.68.156 2.938.156 2.938l-.969 1.53 2.5 5.345.938.78 1.156 3.063-1.531 2.656 1.719 1.72-.75 1.53v2.126h-2.125l-.188 2.468 4.031 2.5-.187 3.063h3.062l1.532 2.094h3.812l3.844 4.812.937 2.656h2.5l4.969 2.125 4.406 2.656v.782l2.875.187 3.625 2.094h3.438l2.875 2.125 3.25 2.281 2.312.75 3.5-3.5 1.188-4.094-1.563-1.562-.187-1.375 2.312-4.312-5.437-3.125-3.125 2.343-1.781-1.156.78-1.75-1.937-1.375-2.562-1.187v-2.532l2.562-.781.969-4.5 1.75-1.937.781 2.937 2.157.969 3.718.594 1.938 1.937h2.344l1.968-1.375 2.532 1.781h1.375l1.562-1.375v-2.937l1.719-3-.406.125-1.344-1.938-3.906-2.344-1.375-2.156-4.688.406-2.75 2.532-6.625.187-1.969-1.375c-.132-.24-1.093-1.935-1.937-2.406a2 2 0 0 0-.125-.062 1 1 0 0 0-.094-.032l-.062-.031h-.125c-.916 0-2.689-1.028-2.907-1.156l-2.75 1.156-.187 2.344-3.313.406-1.968-3.719-1.157-.406v-2.719l-2.75-1.187-.187-4.688-1.969-1.937-4.094-1.969h-1.937l-.594.406h-1.969z" class="land departement57" style="fill:red;stroke:#fff;stroke-opacity:.29045644" transform="translate(-27.84 -49.04)"/><path d="m478.902 191.416-2 .437-3.063 1.156-1.531 1.907-1.719 1.156-3.281 1.531-.937-.187-2.313-.594-2.281-.187-.781-2.5-1.532.593-.187 2.688-1.156-1.156-2.094 1.53-2.094.75-2.5-.187-1.719.594-1.906-1.156-1.156.937h-2.875l-1.344 2.5-6.312.375-1.344-1.719-2.094-.374.188-.97 1.343-.937-1.156-.406-.187-3.062-2.875-.188-1.688.531-1.187 1.594-3.063.938v-1.125h-.937v1.312l-3.844.781v1.719l-3.438.438-1.312 1.312 1.344 1.938 3.125.218 2.75 3.688h2.343l.563 2.562 2.562.375.563 1.75-1.75 1.188-1.156 5.281 5.468 2.719v4.094l2.125-.782 1.782 1.406 1.343-.812-.75-1.156.969-.594 1.344 1.563 1.969-1.375.593-1.938 3.688-.594 1 .781-.188 2.157 2.532 1.937 1.562-.187 1.75-1.375h4.094l2.937 3.312h.969l1.563-.969.218-1.156 1.563-.781 1.75 1.156 1.75 1.969 6.156 3.25 2.438-2.094.187-7.625 3.344-2.906 1.937-4.5-.593-2.937 2.343-4.688 2.157-4.875-3.72-.969-.78-5.281.78-3.531z" class="land departement88" style="fill:red;stroke:#fff;stroke-opacity:.29045644" transform="translate(-27.84 -49.04)"/><path d="m294.12 181.885-1.75.78-1.906.75-.375 2.126-2.875 1.344-.375 2.093 1.344 2.313-1.937 2.656h-2.844l1.125 1.719-1.344 1.531-.469 3.094.938.187.375 2.531.406.594.406 5.25 6.25-.562 2.532-2.344 2.156 1.75 5.25.375.75 1.125v-3.937l4.375-2.875-1.313-1.72.563-5.187.75-1.125-.938-5.187 1.719-1.344-.344-2.437-2.156-1h-3.625l-2.094-1.157-1.531.781z" class="land departement91" style="fill:#fc0;stroke:#fff;stroke-opacity:.29045644" transform="translate(-27.84 -49.04)"/><path d="m271.402 163.635-.063.125-5.468 1.562-.782.969 1 1.562v1.563l1.75.375-1 1 .094.875.125-.094 1.938 1.938.593 2.343 1.563 1.563-.781 2.156v1.938l1.375 1.562-1.375 2.344 1.375 3.344 2.718 1.937.407 2.156 2.343.375.563 4.313 1.781 2.156 3.156.594.469-3.094 1.344-1.531-1.125-1.719h2.844l1.937-2.656-1.344-2.313.375-2.094 2.875-1.343.375-2.125 1.907-.75 1.75-.781.343.218v-.219l-1.75-1.968-1.093-2.969 1.75-3.812-.875-2.875-3.407-2.063-4.812-.219-4.5-2.875-3.625.656z" class="land departement78" style="fill:#fc0;stroke:#fff;stroke-opacity:.29045644" transform="translate(-27.84 -49.04)"/><path d="m275.464 155.166-1.562 1.937-1.188 4.313-1.312 2.219 4.75 2.125 3.625-.657 4.5 2.875 4.812.219 3.407 2.063.875 2.875-.032.062.375-.062 3.5-1.875 5.25-.344 2.875-1.313 1.844-1.312.594-3.844-1.281-1.281-4.282-2.531-4.125-2.157-2.125.969-2.343.594-1.563-1.188-3.125-1.937-2.531 1.937-3.719.406-5.281-.406-1.188-1.937z" class="land departement95" style="fill:#fc0;stroke:#fff;stroke-opacity:.29045644" transform="translate(-27.84 -49.04)"/><path d="m307.183 168.29-1.844 1.313-2.875 1.313-5.25.344.157.718.437.094.406.625-.406.875-.531.094.375.906 2.531-.031.813 1.25.156 1.75.875-.125.812-.656 1.219.062 1.531.875.875.969.407.187.25.469.968.25v-2.844l-1.156-6.875z" class="land departement93" style="fill:#fc0;stroke:#fff;stroke-opacity:.29045644" transform="translate(-27.84 -49.04)"/><path d="m300.183 174.54-2.531.032-1.125.5-.469.625-1.031.063-.938 1.062.032.594.218.687 1.563.438 1.906.969 1.219.062.812-.219.844-.594.281.25 1.813.25.312-.656v-.656l-.312-.125-1.25.063.094.312-.22.188h-.405l.156-.407.062-.437h-.062l-.156-1.75z" class="land departement75" style="fill:#fc0;stroke:#fff;stroke-opacity:.29045644" transform="translate(-27.84 -49.04)"/><path d="m297.214 171.26-3.5 1.875-.375.062-1.718 3.75 1.093 2.969 1.75 1.969v.218l2.719 1.906.656-.343-.5-.938.5-1.469-.312-.53.344-1.22h-.063l-1.906-.968-1.563-.438-.218-.687-.032-.594.938-1.062 1.031-.063.469-.625 1.125-.5-.375-.906.531-.094.406-.875-.406-.625-.437-.094z" class="land departement92" style="fill:#fc0;stroke:#fff;stroke-opacity:.29045644" transform="translate(-27.84 -49.04)"/><path d="m302.84 176.76-.813.656-.813.125-.062.437-.156.406h.406l.219-.187-.094-.312 1.25-.063.312.125v.656l-.312.656-1.813-.25-.281-.25-.844.594-.812.219-1.156-.062-.344 1.218.312.531-.5 1.47.5.937.875-.438 2.094 1.156h3.625l2.156 1-.031-.218 1.531-3.844v-1.75l-.968-.25-.25-.469-.407-.187-.875-.969-1.531-.875z" class="land departement94" style="fill:#fc0;stroke:#fff;stroke-opacity:.29045644" transform="translate(-27.84 -49.04)"/><path d="m467.308 245.197-.187.219h-2.25l-1.157 1.594-1.468.843v1.969l-3.657.438-1.968-1.407-2.657.406-2.531 1.97-1.812 3.093-1.813.563-.844 2.093-2.25.406-3.093 2.532-4.063-.125-1.25.969h-1.125l-3.937 3.218-1.782-.062-.031 1.187.281 2.094 2.532 1.688 1.406 1.843-.438 1.938-1.25 2.969-.843 1.937 5.468 1.844 3.5-.281.282 2.937v3.938l4.343 1.406 1.969.531 2.813 2.688-.282 2.25-1.281 1.812-3.5 1.125.844 1.969.406 1.531-1.531 1.531.156 1.406 2.375.22.031-.188 12.094-11.344-.375-9.375 4.281-2.125 2.938-1.375 2.719-2.531.218-3.719 2.719-1.375 6.25-7.219-.969-2.344 2.157-.968 2.53-3.125-1.374-1.375-4.688.969-.187-.782 4.312-4.969z" class="land departement25" style="fill:red;stroke:#fff;stroke-opacity:.29045644" transform="translate(-27.84 -49.04)"/><path d="m471.34 231.51-1.813.937-1.531 1.125v2.5l.843 2.969v1.937l-.468 3.125-1.063 1.094 12.031 5.438.75-.875 2.594-.407-.969-4.156-.593-2.156-2.75.406-.375-2.344.968-1.781.188-2.344-.563-1.344-3.531-2.75-3.125-.187z" class="land departement90" style="fill:red;stroke:#fff;stroke-opacity:.29045644" transform="translate(-27.84 -49.04)"/><path d="M102.285 433.932q0-.643.232-.9.231-.255.704-.256.227 0 .374.056a.7.7 0 0 1 .238.146q.092.09.145.19a1 1 0 0 1 .085.23q.063.252.063.526 0 .613-.207.897t-.715.285q-.284 0-.46-.091a.74.74 0 0 1-.287-.266 1 1 0 0 1-.126-.34 2.3 2.3 0 0 1-.046-.477m.621.001q0 .43.076.588t.22.157a.23.23 0 0 0 .166-.066.4.4 0 0 0 .103-.212q.033-.144.033-.45 0-.449-.076-.603t-.228-.154q-.156 0-.225.157-.069.158-.069.583m1.735-1.119h1.486v.5h-1.007l-.053.338q.104-.049.206-.074a1 1 0 0 1 .202-.024q.339 0 .549.204t.21.515a.9.9 0 0 1-.108.42.74.74 0 0 1-.307.307q-.2.106-.51.106-.222 0-.381-.043a.752.752 0 0 1-.451-.316 1 1 0 0 1-.116-.264l.633-.069a.4.4 0 0 0 .108.231q.084.08.201.08a.27.27 0 0 0 .216-.1q.086-.099.086-.295 0-.202-.087-.295a.3.3 0 0 0-.228-.094.4.4 0 0 0-.176.044.5.5 0 0 0-.138.117l-.533-.077z" style="font-size:3.14709067px;font-style:normal;font-variant:normal;font-weight:400;font-stretch:normal;text-align:start;line-height:125%;writing-mode:lr-tb;text-anchor:start;fill:#f2f2f2;fill-opacity:1;stroke:none;stroke-width:1px;stroke-linecap:butt;stroke-linejoin:miter;stroke-opacity:1;font-family:Arial Black" transform="matrix(19.68903 0 0 22.70197 -1849.779 -9490.743)"/><path d="M102.285 433.932q0-.643.232-.9.231-.255.704-.256.227 0 .374.056a.7.7 0 0 1 .238.146q.092.09.145.19a1 1 0 0 1 .085.23q.063.252.063.526 0 .613-.207.897t-.715.285q-.284 0-.46-.091a.74.74 0 0 1-.287-.266 1 1 0 0 1-.126-.34 2.3 2.3 0 0 1-.046-.477m.621.001q0 .43.076.588t.22.157a.23.23 0 0 0 .166-.066.4.4 0 0 0 .103-.212q.033-.144.033-.45 0-.449-.076-.603t-.228-.154q-.156 0-.225.157-.069.158-.069.583m2.557.713h-1.14v-.515l1.14-1.355h.546v1.385h.282v.485h-.282v.421h-.546zm0-.485v-.709l-.602.709z" style="font-size:3.14709067px;font-style:normal;font-variant:normal;font-weight:400;font-stretch:normal;text-align:start;line-height:125%;writing-mode:lr-tb;text-anchor:start;fill:#f2f2f2;fill-opacity:1;stroke:none;stroke-width:1px;stroke-linecap:butt;stroke-linejoin:miter;stroke-opacity:1;font-family:Arial Black" transform="matrix(19.68903 0 0 22.70197 -1666.157 -9493.752)"/><path d="M102.285 433.932q0-.643.232-.9.231-.255.704-.256.227 0 .374.056a.7.7 0 0 1 .238.146q.092.09.145.19a1 1 0 0 1 .085.23q.063.252.063.526 0 .613-.207.897t-.715.285q-.284 0-.46-.091a.74.74 0 0 1-.287-.266 1 1 0 0 1-.126-.34 2.3 2.3 0 0 1-.046-.477m.621.001q0 .43.076.588t.22.157a.23.23 0 0 0 .166-.066.4.4 0 0 0 .103-.212q.033-.144.033-.45 0-.449-.076-.603t-.228-.154q-.156 0-.225.157-.069.158-.069.583m2.088-.467-.591-.106a.74.74 0 0 1 .283-.433q.21-.15.594-.15.441 0 .638.163a.517.517 0 0 1 .117.678.7.7 0 0 1-.241.208.7.7 0 0 1 .2.075.5.5 0 0 1 .174.182.55.55 0 0 1 .062.27.75.75 0 0 1-.103.377.7.7 0 0 1-.297.278q-.193.098-.508.098-.308 0-.485-.073a.7.7 0 0 1-.292-.21 1 1 0 0 1-.176-.35l.625-.083q.037.189.115.262a.28.28 0 0 0 .197.073q.126 0 .21-.093a.35.35 0 0 0 .084-.245.34.34 0 0 0-.08-.243.29.29 0 0 0-.22-.086.8.8 0 0 0-.203.037l.033-.448a1 1 0 0 0 .081.008q.123 0 .205-.078a.25.25 0 0 0 .083-.186.22.22 0 0 0-.062-.165.23.23 0 0 0-.169-.061.25.25 0 0 0-.18.067q-.069.066-.094.234" style="font-size:3.14709067px;font-style:normal;font-variant:normal;font-weight:400;font-stretch:normal;text-align:start;line-height:125%;writing-mode:lr-tb;text-anchor:start;fill:#f2f2f2;fill-opacity:1;stroke:none;stroke-width:1px;stroke-linecap:butt;stroke-linejoin:miter;stroke-opacity:1;font-family:Arial Black" transform="matrix(19.68903 0 0 22.70197 -1656.15 -9693.35)"/><path d="M102.285 433.932q0-.643.232-.9.231-.255.704-.256.227 0 .374.056a.7.7 0 0 1 .238.146q.092.09.145.19a1 1 0 0 1 .085.23q.063.252.063.526 0 .613-.207.897t-.715.285q-.284 0-.46-.091a.74.74 0 0 1-.287-.266 1 1 0 0 1-.126-.34 2.3 2.3 0 0 1-.046-.477m.621.001q0 .43.076.588t.22.157a.23.23 0 0 0 .166-.066.4.4 0 0 0 .103-.212q.033-.144.033-.45 0-.449-.076-.603t-.228-.154q-.156 0-.225.157-.069.158-.069.583m3.313 1.134h-1.878q.033-.278.196-.523.164-.245.614-.579.275-.204.352-.31a.35.35 0 0 0 .077-.201.24.24 0 0 0-.076-.176.27.27 0 0 0-.191-.073.27.27 0 0 0-.196.075q-.076.075-.103.266l-.627-.05a1 1 0 0 1 .136-.413.63.63 0 0 1 .277-.228q.18-.08.496-.079.33 0 .514.075a.63.63 0 0 1 .394.581q0 .207-.12.394-.121.187-.44.411-.189.131-.252.183-.065.052-.15.137h.977z" style="font-size:3.14709067px;font-style:normal;font-variant:normal;font-weight:400;font-stretch:normal;text-align:start;line-height:125%;writing-mode:lr-tb;text-anchor:start;fill:#f2f2f2;fill-opacity:1;stroke:none;stroke-width:1px;stroke-linecap:butt;stroke-linejoin:miter;stroke-opacity:1;font-family:Arial Black" transform="matrix(19.68903 0 0 22.70197 -1872.754 -9679.26)"/><path d="M102.285 433.932q0-.643.232-.9.231-.255.704-.256.227 0 .374.056a.7.7 0 0 1 .238.146q.092.09.145.19a1 1 0 0 1 .085.23q.063.252.063.526 0 .613-.207.897t-.715.285q-.284 0-.46-.091a.74.74 0 0 1-.287-.266 1 1 0 0 1-.126-.34 2.3 2.3 0 0 1-.046-.477m.621.001q0 .43.076.588t.22.157a.23.23 0 0 0 .166-.066.4.4 0 0 0 .103-.212q.033-.144.033-.45 0-.449-.076-.603t-.228-.154q-.156 0-.225.157-.069.158-.069.583m2.9-1.157v2.291h-.633v-1.501q-.154.116-.298.189a2.3 2.3 0 0 1-.36.138v-.513q.32-.103.496-.247a1 1 0 0 0 .277-.357z" style="font-size:3.14709067px;font-style:normal;font-variant:normal;font-weight:400;font-stretch:normal;text-align:start;line-height:125%;writing-mode:lr-tb;text-anchor:start;fill:#f2f2f2;fill-opacity:1;stroke:none;stroke-width:1px;stroke-linecap:butt;stroke-linejoin:miter;stroke-opacity:1;font-family:Arial Black" transform="matrix(10.68437 0 0 11.614 -836.542 -4906.484)"/></svg>