<svg xmlns="http://www.w3.org/2000/svg" width="95" height="81" viewBox="0 0 95 81" fill="currentColor">
  <g clip-path="url(#a)">
    <path d="M94.16 35.224a4 4 0 0 1-.462-.508c-3.154-4.24-7.646-7.511-12.523-9.202-1.398-.484-2.646-.758-4.067-1.017-1.984-.36-4.103-.579-6.284-.462-7.935.421-15.831 4.666-20.564 11.42-1.693 2.418-3.102 5.362-3.882 8.138-3.434 12.231 2.126 25.398 13.632 31.304 11.37 5.835 25.35 2.894 33.503-7.352L94.9 65.51l.1-.137s-.139.387-.192.507c-3.258 7.191-10.381 11.917-17.699 14.01-3.545 1.014-7.457 1.336-11.367.925-6.135-.645-11.886-3.037-16.636-7.305-.375-.339-.88-.83-1.294-1.11-.064-.045-.118-.133-.185-.185L38.987 81s-.199-22.727 0-32.135c.523-6.074 2.713-11.804 6.746-16.739 4.333-5.304 10.066-8.787 16.496-10.218 12.024-2.677 25.173 1.953 31.47 12.53.144.242.325.522.462.786"/>
    <path d="M61.992 54.298a2.983 2.983 0 1 0-.002-5.965 2.983 2.983 0 0 0 .002 5.965M81.777 54.298a2.983 2.983 0 1 0-.001-5.965 2.983 2.983 0 0 0 .001 5.965M71.892 54.297a2.98 2.98 0 1 0 0-5.962 2.98 2.98 0 0 0 0 5.962M1.287-.022h35.017c.71 0 1.287.577 1.287 1.287v78.448c0 .71-.577 1.287-1.287 1.287H1.287C.577 81 0 80.423 0 79.713V1.265C0 .553.577-.022 1.287-.022"/>
  </g>
  <defs>
    <clipPath id="a">
      <path d="M0 0h95v81H0z"/>
    </clipPath>
  </defs>
</svg>
