<svg class="elearning-logo logo" xmlns="http://www.w3.org/2000/svg" viewBox="0 0 385.34 393.84" fill="#000">
									<path
										d="M212.92 42.67c19.72-.01 39.44 3.21 58.07 9.68l40.46-36.32c1.12-1 2.34-2.49 1.65-3.82-.54-1.05-1.92-1.25-3.1-1.33C255.45 7.32 200.89 3.77 146.33.21c-4.28-.28-8.73-.54-12.73 1-3.36 1.29-6.13 3.74-8.82 6.14C83.94 43.76 43.11 80.17 2.28 116.58c-1.01.9-2.08 1.92-2.25 3.26-.39 3.02 3.9 2.7 5.72 2.81 3.27.2 6.53.4 9.8.59 6.53.4 13.07.79 19.6 1.19s13.07.79 19.6 1.19l8.13.49c20.96-33.77 53.65-60.1 91.12-73.38 18.88-6.69 38.9-10.04 58.92-10.06M385.46 257.69c-.2.3-3.62.37-4.14.13-.93-.44-.25-2.03-.65-2.87-.16-.33-1.67-1.68-2.07-1.75l-16 .05c-1.13.92-2.12 1.55-2.27 3.06s-.23 6.71.07 7.96c.11.46 1.96 2.43 2.15 2.43h18.26v-2h-15.93l-.39-.38v-3.75l.39-.38h20.2l.39.38v10.26l-.39.38h-24.34c-1.16-1.12-4.34-3.4-5.06-4.61-.95-1.6.17-10.55-.19-12.97.1-.32 4.41-4.51 4.88-4.79.55-.34.77-.34 1.4-.4 5.8-.51 12.46.36 18.34.06.68.15 5.36 4.64 5.36 5.08v4.13ZM187.62 257.19h21.88s.65.58.65.63v3.75l-.39.38h-22.14c-.39 2.17.41 3.63 2.25 4.69l21.91.11c1.12.21.79 4.12.46 4.34l-24.6-.03c-1.31-1.08-4.81-3.76-5.13-5.3-.39-1.85-.27-9.12-.07-11.21.03-.3 0-.6.13-.88.2-.63 4.83-5.04 5.51-5.19l23.52-.07.89.39v3.75s-.4.44-.52.5l-22.08.18c-1.71.74-2.58 2.1-2.26 3.95ZM252.87 266.2v4.38c0 .08-.34.38-.26.63h-4.27l-.39-.38v-22.01l.39-.38h25.38c1.44 1.33 5.27 4.05 5.54 5.9.15 1.03.2 5.53-.04 6.42-.35 1.32-4.35 4.02-4.34 4.81l3.11 5.02-.39.61h-4.4l-3.37-5zm0-4.51h18.77c.23 0 2.06-1.59 2.22-1.86.38-.64.38-3.88.13-4.66-.11-.36-1.93-2.24-2.09-2.24h-19.03zM240.7 271.2v-7.25h-20.72v6.63c0 .08-.34.38-.26.63h-4.27l-.39-.38v-16.76c0-.63 4.72-5.31 5.42-5.52l19.25-.06c.81.18 5.62 4.88 5.62 5.58v16.76l-.39.38h-4.27Zm0-11.51v-4.13c0-.31-2.05-2.54-2.71-2.39l-15.8.02c-.38.04-2.21 1.73-2.21 1.87v4.25c0 .08-.33.19-.26.38h20.97ZM311.91 271.2h-4.4l-.32-14.09-3.95-3.92h-16.7v17.64l-.39.38h-3.88l-.4-.86c.46-6.57-.56-13.8 0-20.29.04-.46.04-.92.33-1.31.4-.28.88-.28 1.35-.32 6.55-.53 13.85.43 20.48 0l.91.12c.43.13 6 5.38 6.46 6.02.27.37.48.73.6 1.17.57 2.1.4 11.54.19 14.1-.04.48-.15.91-.27 1.36ZM352.57 271.2h-4.27l-.39-.38v-13.76l-4.01-3.88h-16.7v17.64l-.39.38h-3.88l-.4-.86c.38-6.55-.46-13.54 0-20.04.11-1.51.04-1.74 1.68-1.88 6.75-.55 14.35.39 21.19.06 2.62 1.88 5.03 4.41 7.18 6.83v15.89ZM150.98 248.43h4.14l.39.38v15.26c0 .47 2.46 2.52 2.98 2.62h20.46l.89.38v3.75l-.89.39h-22.81c-.31.03-.52-.11-.78-.25-.89-.49-4.86-4.67-5.02-5.66.47-4.88-.69-11.04-.03-15.76.07-.54.19-.79.66-1.11ZM314.76 248.43h5.19v22.76h-5.19zM291.08 311.45c-.42 0-.79-.02-1.1-.04v-11.85h-36.1v11.84h-.51c-.79 0-1.47-.02-1.99-.05l-.05-24.13c.04-.26.13-.48.29-.71.54-.77 5.2-5.43 6.09-6.08.42-.31.44-.33 1.29-.39 1.84-.14 3.87-.2 6.18-.2 2.75 0 5.68.1 8.27.18 2.82.09 5.65.18 8.4.18 1.43 0 2.73-.02 3.96-.07.03.02.08.06.13.1.81.57 5.35 5.14 6.07 6.11 0 0 .21.28.24.31.4 5.64.33 11.48.26 17.12-.04 2.71-.06 5.17-.05 7.59-.32.04-.77.08-1.39.08Zm-31.39-28.8c-1.49.23-2.77 1.51-4.42 3.28-.27.29-.52.56-.69.73l-.69.67v10.65h36.1v-10.71l-.77-.68c-.33-.29-.67-.65-1.03-1.03-.83-.89-1.85-1.99-3.31-2.64l-.44-.19-24.57-.1-.18.03Z"
										class="st0 colour-me"/>
									<path
										d="M385.34 205.47c-.21-13.1-2.42-26.05-6.29-38.57.02-.02.03-.05.05-.07-1.24-3.88-2.63-7.7-4.13-11.45l-.06-.15C349.23 91.28 286.66 46.12 213.53 46.12c-96.02 0-173.86 77.84-173.86 173.86s77.84 173.86 173.86 173.86c16.61 0 32.67-2.33 47.88-6.68v-13.7c-74.91 0-135.53-58.69-135.53-131.22h259.5c-.13-12.25.17-24.52-.03-36.77Zm-122.18-21.96c-13.06 12.77-29.63 24.21-48.84 32.96-31.01 14.13-62.79 18.47-88.63 14.02-26.48-4.2-47.57-17.1-56.95-37.69-18.71-41.07 16.23-97.19 78.03-125.35s127.08-17.68 145.79 23.39c12.95 28.44.19 64.08-29.4 92.67"
										class="st0 colour-me"/>
									<path
										d="M138.88 267.54c.18.48.63.68 1.12.68h5.2c.21 0 .39.04.58.11.46.18.65.6.66 1.07v.58c-.02.51-.22.98-.73 1.15-.18.06-.36.09-.55.09h-6.09c-.59 0-1.11-.25-1.52-.66l-1.17-1.17c-.38-.39-.58-.9-.6-1.44v-9.72c0-.56.24-1.1.63-1.49l1.1-1.1c.4-.4.92-.61 1.48-.63h4.23c.56 0 1.09.23 1.48.63l1.11 1.11c.39.39.62.92.63 1.47v5.67c0 .2-.03.38-.1.56-.19.5-.65.7-1.17.7h-5.2c-.5.02-.94.21-1.11.7-.05.16-.09.32-.09.49v.65c0 .19.04.38.1.56Zm4.47-5.71c.07-.19.11-.38.11-.59v-2.04c0-.48-.19-.95-.66-1.13-.18-.07-.37-.11-.58-.11H140c-.19 0-.37.03-.54.1-.48.18-.68.65-.68 1.13v2.05c0 .2.03.38.1.56.17.48.61.68 1.1.7h2.31c.48-.03.9-.21 1.07-.68ZM193.18 280.05l-49.75.04c-.05.91-.08 2.1-.07 2.98h23.4v28.28c.53.03 1.24.05 2.1.05h.91v-28.33h23.41c.02-.9.02-2.12 0-3.02M242.59 308.91l-31.87-.11c-2.07-.08-5.53-4.21-5.79-5.42a7 7 0 0 1-.1-.76v-5.87h34.22v-2.78h-34.28v-3.85c.17-4.37 3.89-6.44 5.22-7.18l.51-.29 32.12-.04c.03-.78.02-1.75-.02-2.53l-33.55-.02c-.27.04-.43.1-.8.38-.74.55-5.86 5.65-6.28 6.25-.07.1-.08.12-.12.62-.29 3.06-.14 6.54 0 9.89.1 2.53.21 5.14.14 7.63.05.09.14.22.26.38.61.82 5.48 5.57 6.07 5.94.37.19.47.21.44.22 2-.14 4.15-.2 6.58-.2 3.38 0 6.85.13 10.25.26 3.29.12 6.7.25 9.95.25 2.66 0 4.99-.08 7.11-.26 0-.75-.02-1.72-.05-2.5ZM383.03 298.34c-.1-3.33-.21-6.78-.13-10.09-.04-.1-.1-.2-.18-.31-.55-.78-1.98-2.1-3.12-3.16-.68-.63-1.33-1.22-1.83-1.73-.38-.39-.75-.83-1.07-1.23-.5-.61-1.16-1.42-1.64-1.65l-24.9-.05c-.58.25-1.84 1.48-3.77 3.68-.51.58-.95 1.09-1.33 1.47l-1.15 1.17-1.47-.73c-1.21-.6-2.37-1.87-3.6-3.22s-2.04-2.15-2.41-2.38l-26.92-.03c-.16.04-.33.12-.64.35-1.13.84-3.83 3.62-5.9 5.94-.48.54-1.22 1.4-1.66 1.93v23.11h.36c.75 0 1.41-.02 1.92-.04l.09-20.89.04-.19c.17-.93.54-1.51.9-2.03.15-.21 4.65-5.03 6.01-5.45l.32-.1 23.46-.09.17.02c1.93.27 3.32 1.81 4.46 3.06.51.56 1.15 1.26 1.54 1.47l.38.2.28.33c.73.87.8 1.82.83 2.34v.15c.13 1.39.16 2.82.16 4.27v16.93h1.03c.54 0 .97-.01 1.31-.03l.05-21.88.04-.21c.32-1.67 5.63-6.21 6.49-6.47l.33-.1 22.64.12 6.36 6.42v22.13c.37.02.89.03 1.58.03.38 0 .72 0 1-.01.26-4.17.12-8.65-.02-13.05Z"
										class="st0 colour-me"/>
								</svg>