<svg xmlns="http://www.w3.org/2000/svg" aria-hidden="true" data-prefix="far" data-icon="copy" viewBox="0 0 448 512" class="svg-inline--fa fa-copy fa-w-14 fa-7x"><path d="M176 0c-26.51 0-48 21.49-48 48a4981.36 4981.36 0 00-.615 48.16h-79.42c-26.51 0-48 21.49-48 48-1.902 105.773 0 210.61 0 320 0 26.51 21.49 48 48 48 79.868 3.339 144.602 0 224 0 26.51 0 48-21.49 48-48v-47.35c25.734-.392 51.95-.81 80.035-.81 26.51 0 48-21.49 48-48V99.883a48 48 0 00-14.059-33.942L382.06 14.06A48 48 0 00348.117 0H176zm6 48h106v88c0 13.255 10.745 24 24 24h88v202a6 6 0 01-6 6H182a6 6 0 01-6-6V54a6 6 0 016-6zm154 0h9.633c1.59 0 3.116.633 4.242 1.758l48.367 48.367a5.999 5.999 0 011.758 4.242V112h-64V48zM53.965 144.16h73.2C127.08 217.801 128 291.796 128 368c0 26.51 21.49 48 48 48 33.963 1.42 65.184 1.627 95.965 1.402v40.758a6 6 0 01-6 6h-212a6 6 0 01-6-6v-308a6 6 0 016-6z" fill="currentColor"/></svg>